<svg id="Layer_1" data-name="Layer 1" xmlns="http://www.w3.org/2000/svg" viewBox="0 0 28 28"><path d="M22.23,13.88a6.72,6.72,0,0,1-1.94.53,3.31,3.31,0,0,0,1.48-1.86,6.84,6.84,0,0,1-2.14.82,3.37,3.37,0,0,0-5.84,2.3,3.79,3.79,0,0,0,.08.77,9.53,9.53,0,0,1-7-3.53,3.44,3.44,0,0,0-.46,1.71A3.36,3.36,0,0,0,8,17.42,3.29,3.29,0,0,1,6.43,17v0a3.38,3.38,0,0,0,2.7,3.31,3.12,3.12,0,0,1-.88.11,3.32,3.32,0,0,1-.64,0,3.4,3.4,0,0,0,3.15,2.35,6.79,6.79,0,0,1-4.19,1.44,5.29,5.29,0,0,1-.8-.05A9.43,9.43,0,0,0,11,25.68a9.54,9.54,0,0,0,9.6-9.61c0-.15,0-.29,0-.44A6.55,6.55,0,0,0,22.23,13.88Z" style="fill:#fff"/><path id="Shape" d="M22.74,2.32H5.26A1.35,1.35,0,0,0,3.92,3.67V8A1.34,1.34,0,0,0,5.26,9.38H19.64l1,2.15a.5.5,0,0,0,.92,0l.95-2.15h.27A1.34,1.34,0,0,0,24.08,8V3.67A1.35,1.35,0,0,0,22.74,2.32ZM23.41,8a.67.67,0,0,1-.67.67h-.49a.33.33,0,0,0-.3.2l-.89,2-.89-2a.35.35,0,0,0-.31-.2H5.26A.67.67,0,0,1,4.59,8V3.67A.67.67,0,0,1,5.26,3H22.74a.67.67,0,0,1,.67.67Z" style="fill:#fff"/><path id="Shape-2" data-name="Shape" d="M6.27,4.68H7.61a.34.34,0,0,0,0-.68H6.27a.34.34,0,0,0,0,.68Z" style="fill:#fff"/><path id="Shape-3" data-name="Shape" d="M9,4.68h4.37a.34.34,0,0,0,0-.68H9a.34.34,0,1,0,0,.68Z" style="fill:#fff"/><path id="Shape-4" data-name="Shape" d="M18.71,4h-4a.34.34,0,0,0,0,.68h4a.34.34,0,0,0,0-.68Z" style="fill:#fff"/><path id="Shape-5" data-name="Shape" d="M10,5.68H6.27a.34.34,0,1,0,0,.68H10a.34.34,0,0,0,0-.68Z" style="fill:#fff"/><path id="Shape-6" data-name="Shape" d="M16.35,5.68h-4.7a.34.34,0,0,0,0,.68h4.7a.34.34,0,0,0,0-.68Z" style="fill:#fff"/><path id="Shape-7" data-name="Shape" d="M21.06,5.35a1.33,1.33,0,1,0,1,.39A1.35,1.35,0,0,0,21.06,5.35Zm0,2a.67.67,0,1,1,.67-.67A.67.67,0,0,1,21.06,7.36Z" style="fill:#fff"/></svg>