<svg id="Layer_1" data-name="Layer 1" xmlns="http://www.w3.org/2000/svg" viewBox="0 0 28 28"><title>Image Effect icon-01-01</title><path d="M11.91,7.64a.5.5,0,1,0,1,0,.53.53,0,0,0-.49-.48h0a.44.44,0,0,0-.51.36Z" style="fill:#fff"/><path d="M22.54,16.93a.54.54,0,0,0,.49.49.52.52,0,0,0,.49-.49.54.54,0,0,0-.49-.49h0C22.79,16.44,22.67,16.57,22.54,16.93Z" style="fill:#fff"/><path d="M17,12.9a.33.33,0,0,0-.29-.37H16l2.81-2.81v.61a.38.38,0,0,0,.3.43.38.38,0,0,0,.43-.31.24.24,0,0,0,0-.12V8.62a.32.32,0,0,0-.27-.36H17.66a.32.32,0,0,0-.37.26v.1a.53.53,0,0,0,.37.37h.61L15.46,11.8v-.61a.33.33,0,0,0-.28-.37h-.09a.32.32,0,0,0-.37.26.21.21,0,0,0,0,.11V12.9a.33.33,0,0,0,.28.37h1.8C16.92,13.27,17,13.14,17,12.9Z" style="fill:#fff"/><path d="M21.2,8.38a.45.45,0,0,0,.37.12c.12,0,.12,0,.24-.12a.52.52,0,0,0,.12-.61,11,11,0,0,0-1.1-1.35.56.56,0,0,0-.61,0,.56.56,0,0,0,0,.61C20.47,7.4,20.83,7.89,21.2,8.38Z" style="fill:#fff"/><path d="M14.48,4.22l1.59.37h.12c.12,0,.37-.12.37-.25s0-.48-.25-.48a4.21,4.21,0,0,0-1.71-.37c-.24,0-.49.12-.49.37A.38.38,0,0,0,14.48,4.22Z" style="fill:#fff"/><path d="M17.66,5.2A4.87,4.87,0,0,1,19,6.06c.12,0,.12.12.24.12a.45.45,0,0,0,.37-.12c.12-.25.12-.49-.12-.62-.49-.36-1-.61-1.47-1a.52.52,0,0,0-.61.12.39.39,0,0,0,.25.61Z" style="fill:#fff"/><path d="M22.06,9.23c-.25.13-.25.37-.25.61a7.24,7.24,0,0,1,.61,1.47c0,.12.25.25.37.25h.12c.25-.13.37-.25.25-.49a6,6,0,0,0-.62-1.59C22.54,9.11,22.42,9.11,22.06,9.23Z" style="fill:#fff"/><path d="M17,23.29a7,7,0,0,1-1.46.49c-.25,0-.37.24-.25.49a.33.33,0,0,0,.3.36h.19A6,6,0,0,0,17.41,24c.25-.12.25-.36.25-.61C17.41,23.29,17.17,23.17,17,23.29Z" style="fill:#fff"/><path d="M13.87,24.14a3.29,3.29,0,0,1-1.59,0c-.25,0-.49.13-.49.37s.12.49.37.49h1.71c.24,0,.36-.24.36-.49S14.23,24.14,13.87,24.14Z" style="fill:#fff"/><path d="M22.3,18.89a.55.55,0,0,0-.61.12c-.25.49-.61.86-.86,1.35-.12.24-.12.48.13.61h0c.12,0,.12.12.24.12a.46.46,0,0,0,.37-.12,10.57,10.57,0,0,0,1-1.47C22.54,19.26,22.54,19,22.3,18.89Z" style="fill:#fff"/><path d="M19.61,21.58a5.13,5.13,0,0,1-1.22,1c-.25.12-.25.36-.12.61s.24.24.36.24.13,0,.25-.12a11.69,11.69,0,0,0,1.34-1.1.56.56,0,0,0,0-.61C20.1,21.33,20,21.33,19.61,21.58Z" style="fill:#fff"/><path d="M22.91,12.78c0,.49.12.85.12,1.34v.25c0,.24.13.36.37.49h0c.12,0,.37-.13.37-.25v-.49a5.52,5.52,0,0,0-.13-1.46c0-.25-.24-.37-.48-.37S22.91,12.53,22.91,12.78Z" style="fill:#fff"/><path d="M3.36,10h0a.64.64,0,0,0,.48-.25,5.32,5.32,0,0,0,.74-1.34.56.56,0,0,0,0-.61A.4.4,0,0,0,4,7.88H4a9,9,0,0,0-.86,1.47.38.38,0,0,0,0,.54A.41.41,0,0,0,3.36,10Z" style="fill:#fff"/><path d="M2.5,13.14h0c.24,0,.49-.12.49-.36.12-.49.24-1.1.37-1.59.12-.25,0-.49-.25-.49s-.49,0-.49.24c-.12.62-.24,1.1-.36,1.72C2.13,12.9,2.13,13.14,2.5,13.14Z" style="fill:#fff"/><path d="M2.5,14.86h0c.24,0,.49-.25.37-.49A.33.33,0,0,0,2.59,14H2.5a.33.33,0,0,0-.37.28v.09h0C2.13,14.73,2.13,14.86,2.5,14.86Z" style="fill:#fff"/><path d="M8,5.2h.24a7.86,7.86,0,0,1,1.47-.61c.25-.12.37-.37.25-.49s-.37-.37-.49-.24a8.28,8.28,0,0,0-1.59.61A.44.44,0,0,0,7.61,5l0,0h0A.46.46,0,0,0,8,5.2Z" style="fill:#fff"/><path d="M5.31,7.28c.12,0,.25,0,.25-.12a9.12,9.12,0,0,1,1.22-1.1C7,5.93,7,5.69,7,5.44a.23.23,0,0,0-.28-.16.2.2,0,0,0-.08,0H6.53A6.76,6.76,0,0,0,5.19,6.54a.58.58,0,0,0,0,.62.12.12,0,0,0,.12.12Z" style="fill:#fff"/><path d="M11.3,4.22h0a7.06,7.06,0,0,1,1.59-.12h0c.24,0,.37-.12.49-.37a.32.32,0,0,0-.27-.36.21.21,0,0,0-.11,0h0a8.16,8.16,0,0,0-1.71.12c-.24,0-.37.24-.37.49S11.06,4.22,11.3,4.22Z" style="fill:#fff"/><path d="M8.61,12a6.49,6.49,0,1,0,6.52,6.48A6.59,6.59,0,0,0,8.61,12Zm0,12.1a5.62,5.62,0,1,1,5.62-5.62h0a5.75,5.75,0,0,1-5.62,5.66Z" style="fill:#fff"/><circle cx="24.13" cy="4.83" r="1.83" style="fill:#fff"/></svg>