<svg id="Layer_1" data-name="Layer 1" xmlns="http://www.w3.org/2000/svg" viewBox="0 0 28 28"><title>Testimonial-01-01</title><g id="Layer_2" data-name="Layer 2"><g id="Layer_1-2" data-name="Layer 1-2"><path d="M22.2,18.3H5.8a.9.9,0,0,1-.9-.9h0V7.9A.9.9,0,0,1,5.8,7H22.2a.9.9,0,0,1,.9.9h0v9.4a.93.93,0,0,1-.84,1ZM6.1,17H21.9V8.3H6.1Z" style="fill:#fff"/><circle cx="9.5" cy="10.9" r="1.9" style="fill:#fff"/><g style="opacity:0.30000001192092896"><path d="M20.1,10.6H12.6a.5.5,0,0,1,0-1h7.5a.5.5,0,0,1,0,1Z" style="fill:#fff"/></g><g style="opacity:0.30000001192092896"><path d="M20.2,14.6H8a.5.5,0,0,1,0-1H20.2a.5.5,0,0,1,0,1Z" style="fill:#fff"/></g><g style="opacity:0.30000001192092896"><path d="M20.2,16.1H8.1a.5.5,0,0,1,0-1H20.2a.47.47,0,0,1,.5.44v.06A.54.54,0,0,1,20.2,16.1Z" style="fill:#fff"/></g><path d="M17,12.1H12.6a.5.5,0,0,1,0-1H17a.5.5,0,0,1,0,1Z" style="fill:#fff"/><path d="M27.1,14.4a.37.37,0,0,1-.3-.1l-2.5-2.1c-.2-.2-.2-.5,0-.6s.4-.2.5,0l2.5,2.1a.37.37,0,0,1,.07.53l-.07.07C27.3,14.4,27.2,14.4,27.1,14.4Z" style="fill:#fff"/><path d="M24.6,16.5a.46.46,0,0,1-.4-.5c0-.1.1-.2.1-.3l2.5-2.1c.2-.1.5-.1.6.1a.45.45,0,0,1,0,.5l-2.5,2.1C24.8,16.5,24.7,16.5,24.6,16.5Z" style="fill:#fff"/><path d="M3.4,16.5a.37.37,0,0,1-.3-.1L.6,14.3c-.2-.2-.2-.5,0-.6s.4-.2.5,0l2.5,2.1a.37.37,0,0,1,.08.52.3.3,0,0,1-.08.08C3.7,16.5,3.5,16.5,3.4,16.5Z" style="fill:#fff"/><path d="M.9,14.4a.46.46,0,0,1-.4-.5c0-.1.1-.2.1-.3l2.5-2.1c.2-.1.5-.1.6.1a.45.45,0,0,1,0,.5L1.2,14.2C1.1,14.4,1,14.4.9,14.4Z" style="fill:#fff"/><circle cx="11.9" cy="20.2" r="0.5" style="fill:#fff;opacity:0.30000001192092896;isolation:isolate"/><circle cx="14" cy="20.2" r="0.8" style="fill:#fff"/><circle cx="16.1" cy="20.2" r="0.5" style="fill:#fff;opacity:0.30000001192092896;isolation:isolate"/></g></g></svg>