<svg id="Layer_1" data-name="Layer 1" xmlns="http://www.w3.org/2000/svg" viewBox="0 0 28 28"><title>Text Mask-01-01-01</title><path d="M8.61,21.09h-4A1.22,1.22,0,0,1,3.35,20V4.22A1.23,1.23,0,0,1,4.45,3h15.4a1.23,1.23,0,0,1,1.23,1.1v4H19.85V4.22H4.58V19.87H8.73v1.22Z" style="fill:#fff"/><path d="M23.64,23.78h-14V9.36h14Zm.13-15.65H9.47a1.1,1.1,0,0,0-1.1,1.1h0V23.9A1.1,1.1,0,0,0,9.47,25H23.64a1.1,1.1,0,0,0,1.1-1.1h0V9.23A1,1,0,0,0,24,8.13h-.24" style="fill:#fff"/><path d="M21.2,11.68l-.25.73h-3.3a1.22,1.22,0,0,0-1.22,1.1v8H15.7V13.63a1.29,1.29,0,0,0-1.1-1.22l-2.81-.12v-.73h9.29m.61-.74H11.18a.34.34,0,0,0-.37.29v.08h0V13c0,.12.12.37.24.37h.13l3.42.12a.34.34,0,0,1,.37.29v.08h0v8.19a.32.32,0,0,0,.25.36h0a.11.11,0,0,0,.08,0H17a.33.33,0,0,0,.37-.29h0v-.07h0V13.76a.33.33,0,0,1,.29-.37h3.5c.12,0,.24-.12.37-.25l.61-1.83a1,1,0,0,0-.49-.49h0" style="fill:#fff"/></svg>