<svg id="Layer_1" data-name="Layer 1" xmlns="http://www.w3.org/2000/svg" viewBox="0 0 28 28"><path d="M23.7,23.67H4.3a.93.93,0,0,1-.93-.93V9.22a.93.93,0,0,1,.93-.93H16.58v.93H4.3V22.74H23.7V9.22h-1V8.29h1a.93.93,0,0,1,.93.93V22.74A.93.93,0,0,1,23.7,23.67Z" style="fill:#fff"/><rect x="5.65" y="12.01" width="4.01" height="4.01" style="fill:#fff"/><rect x="11.62" y="12.04" width="6" height="0.57" style="fill:#fff"/><rect x="11.62" y="13.18" width="10.57" height="0.57" style="fill:#fff"/><rect x="11.62" y="14.33" width="10.96" height="0.57" style="fill:#fff"/><rect x="11.62" y="15.48" width="4.85" height="0.57" style="fill:#fff"/><rect x="5.68" y="17.76" width="3.95" height="3.95" style="fill:#fff"/><rect x="11.62" y="17.76" width="6" height="0.57" style="fill:#fff"/><rect x="11.62" y="18.9" width="10.57" height="0.57" style="fill:#fff"/><rect x="11.62" y="20.05" width="10.96" height="0.57" style="fill:#fff"/><rect x="11.62" y="21.2" width="4.85" height="0.57" style="fill:#fff"/><path d="M19.62,11.55a3.61,3.61,0,1,1,3.61-3.61A3.62,3.62,0,0,1,19.62,11.55Zm0-6.29A2.68,2.68,0,1,0,22.3,7.94,2.68,2.68,0,0,0,19.62,5.26Z" style="fill:#fff"/><path d="M20,6.77a.46.46,0,0,0-.12.36h.53v.56h-.53v2h-.65v-2h-.34V7.13h.34V7.07a.91.91,0,0,1,.26-.71,1.12,1.12,0,0,1,.78-.25h.14v.57A.53.53,0,0,0,20,6.77Z" style="fill:#fff"/></svg>