<svg id="Layer_1" data-name="Layer 1" xmlns="http://www.w3.org/2000/svg" viewBox="0 0 28 28"><title>Logo-01-01</title><g id="Layer_2" data-name="Layer 2"><g id="Layer_1-2" data-name="Layer 1-2"><path d="M15.21,7a.38.38,0,0,0,.49,0h0l1.7-1.7a.37.37,0,0,0,0-.48h0L15.82,3.06c-.24,0-.36-.12-.61,0s-.12.37,0,.49l.13.12h0l1.09,1.1H11.08c-.24,0-.36.12-.36.24s.12.36.24.36h5.47l-1.22,1.1a.37.37,0,0,0,0,.48Z" style="fill:#fff"/><path d="M12.91,21a.38.38,0,0,0-.49,0h0l-1.7,1.7a.38.38,0,0,0,0,.49h0l1.7,1.7a.31.31,0,0,0,.44,0,.41.41,0,0,0,.05-.09.24.24,0,0,0,0-.34l0,0-1.1-1.09h5.35c.24,0,.36-.24.24-.36a.27.27,0,0,0-.24-.25H11.81l1.1-1.09A.66.66,0,0,0,12.91,21Z" style="fill:#fff"/><path d="M14,19.1A5.1,5.1,0,1,1,19.1,14h0A5.13,5.13,0,0,1,14,19.1ZM14,10a4,4,0,1,0,4,4h0A4,4,0,0,0,14,10Z" style="fill:#fff"/><g style="opacity:0.30000001192092896"><circle cx="23.35" cy="14" r="3.16" style="fill:#fff"/></g><g style="opacity:0.30000001192092896"><circle cx="4.65" cy="14" r="3.16" style="fill:#fff"/></g></g></g></svg>