<svg id="Layer_1" data-name="Layer 1" xmlns="http://www.w3.org/2000/svg" viewBox="0 0 28 28"><title>Blurb-01-01</title><path d="M24.4,23H3.7a1.11,1.11,0,0,1-1.1-1.1h0V8.7A1.11,1.11,0,0,1,3.7,7.6h2v.9h-2a.22.22,0,0,0-.2.2h0V21.9a.22.22,0,0,0,.2.2H24.4a.22.22,0,0,0,.2-.2h0V8.7a.22.22,0,0,0-.2-.2H20V7.6h4.3a1.11,1.11,0,0,1,1.1,1.1h0V21.9A1.09,1.09,0,0,1,24.4,23Z" style="fill:#fff"/><rect x="12.8" y="7.6" width="1.2" height="0.9" style="fill:#fff"/><path d="M14.4,12.5h3.5a.46.46,0,0,1,.5.4V13h0a.46.46,0,0,1-.4.5H14.4a.46.46,0,0,1-.5-.4V13h0a.47.47,0,0,1,.44-.5Z" style="fill:#fff"/><path d="M14.4,14.6h7.9a.46.46,0,0,1,.5.4v.1h0a.46.46,0,0,1-.4.5h-8a.46.46,0,0,1-.5-.4v-.1h0a.46.46,0,0,1,.4-.5Z" style="fill:#fff"/><path d="M14.4,16.8h7.9a.46.46,0,0,1,.5.4v.1h0a.46.46,0,0,1-.4.5h-8a.46.46,0,0,1-.5-.4v-.1h0a.46.46,0,0,1,.4-.5Z" style="fill:#fff"/><path d="M14.5,19.1H18a.46.46,0,0,1,.5.4v.1h0a.46.46,0,0,1-.4.5H14.5a.46.46,0,0,1-.5-.4v-.1h0a.47.47,0,0,1,.44-.5Z" style="fill:#fff"/><path d="M11.9,5.9V19H6.6V5.9h5.3m.3-.9H6.3c-.4,0-.7.2-.7.6h0V19.3a.65.65,0,0,0,.6.6h5.9a.65.65,0,0,0,.6-.6h0V5.6c.1-.3-.1-.5-.4-.6Z" style="fill:#fff"/><path d="M17,5.9a2.05,2.05,0,0,1,2.1,2V8a2.1,2.1,0,0,1-4.2,0,2.05,2.05,0,0,1,2-2.1H17M17,5a3,3,0,0,0,0,6,3.06,3.06,0,0,0,3-2.9h0A3,3,0,0,0,17.1,5H17Z" style="fill:#fff"/><circle cx="19.6" cy="13" r="0.5" style="fill:#fff"/></svg>