<svg id="Layer_1" data-name="Layer 1" xmlns="http://www.w3.org/2000/svg" viewBox="0 0 28 28"><title>Animation-01-01</title><path d="M11.56,12.65H7.79c-.12,0-.36.12-.36.25v.85c0,.12.12.36.24.36h3.89c.12,0,.37-.12.37-.24V13c.12-.12-.13-.37-.37-.37" style="fill:#fff"/><path d="M6.46,12.65H5.73c-.13,0-.37.12-.37.25v.85c0,.12.12.36.24.36h.86c.12,0,.36-.12.36-.24V13c0-.12-.12-.25-.36-.37h0" style="fill:#fff"/><path d="M9.49,15.69H5.73c-.13,0-.37.12-.37.24v.85c0,.13.12.37.24.37H9.49c.13,0,.37-.12.37-.24v-.85c0-.13-.12-.25-.37-.37h0" style="fill:#fff"/><path d="M4.27,15.69H3.54c-.12,0-.37.12-.37.24v.85c0,.13.13.37.25.37h.85c.12,0,.36-.12.36-.24v-.85c.12-.13-.12-.37-.36-.37" style="fill:#fff"/><path d="M10.1,18.85H6.33c-.12,0-.36.12-.36.24V20c0,.12.12.36.24.36H10.1c.12,0,.37-.12.37-.24v-.85a.32.32,0,0,0-.26-.37H10.1" style="fill:#fff"/><path d="M4.88,18.85H4.15c-.13,0-.37.12-.37.24V20c0,.12.12.36.24.36h.86c.12,0,.36-.12.36-.24v-.85A.32.32,0,0,0,5,18.9h-.1" style="fill:#fff"/><path d="M9.13,21.4H8.4c-.12,0-.36.13-.36.25v.85c0,.12.12.36.24.36h.85c.12,0,.36-.12.36-.24v-.85c0-.12-.12-.24-.36-.37" style="fill:#fff"/><path d="M17.27,3.78h0m-.6,2.07,6.92,17.86H18.25l-.25-1h1.22A1.54,1.54,0,0,0,20.56,22a2,2,0,0,0,.24-1.82L18.61,13.5A1.67,1.67,0,0,0,17,12.29a1.81,1.81,0,0,0-1.7,1.33L12.9,23.71h-1L16.67,5.85m-.13-2.8c-.24,0-.36.12-.48.49L10.47,24.08c-.12.36.12.85.48.85h2.31a.57.57,0,0,0,.61-.53v-.08L16.54,14c.13-.24.25-.49.49-.49s.36.12.49.37l2.18,6.68c.13.49-.12,1-.48,1H17.15c-.36,0-.61.48-.48,1l.48,2.06c.12.25.24.49.49.49h6.68c.49,0,.73-.61.49-1.09L17,3.41c-.12-.24-.24-.36-.49-.36" style="fill:#fff"/></svg>