<svg id="Layer_1" data-name="Layer 1" xmlns="http://www.w3.org/2000/svg" viewBox="0 0 28 28"><path d="M4.31,21.27H23.69a.69.69,0,0,0,.69-.69V5.35a.69.69,0,0,0-.69-.69H4.31a.69.69,0,0,0-.69.69V20.58A.69.69,0,0,0,4.31,21.27ZM5,6H23V19.88H5Z" style="fill:#fff"/><path d="M14.2,12.54,9.43,9.78a.5.5,0,0,0-.67.18.43.43,0,0,0-.07.25v5.51a.49.49,0,0,0,.49.49.45.45,0,0,0,.25-.07l4.77-2.75a.49.49,0,0,0,.19-.66A.39.39,0,0,0,14.2,12.54ZM9.67,14.87V11.05L13,13Z" style="fill:#fff"/><path d="M8.46,22a.69.69,0,1,0,0,1.38H19.54a.69.69,0,0,0,0-1.38Z" style="fill:#fff"/><path d="M18,11a.75.75,0,0,0-.19.59h.86v.92h-.86v3.36H16.75V12.56H16.2v-.92h.55v-.1a1.56,1.56,0,0,1,.43-1.18,1.86,1.86,0,0,1,1.3-.41h.22v.94A.9.9,0,0,0,18,11Z" style="fill:#fff"/></svg>