<svg id="Layer_1" data-name="Layer 1" xmlns="http://www.w3.org/2000/svg" viewBox="0 0 28 28"><path d="M11.82,7.73a8.06,8.06,0,1,1-2.7,15.65l-3.37.7a.45.45,0,0,1-.54-.5l.25-2.84a8.06,8.06,0,0,1,6.36-13Zm0,.91A7.15,7.15,0,0,0,6.28,20.31a.42.42,0,0,1,.1.33l-.21,2.43,2.89-.61a.54.54,0,0,1,.25,0,6.93,6.93,0,0,0,2.51.46,7.15,7.15,0,0,0,0-14.3Z" style="fill:#fff"/><path d="M8.58,14.84a.95.95,0,1,1-1,.95A1,1,0,0,1,8.58,14.84Z" style="fill:#fff;fill-rule:evenodd"/><path d="M11.82,14.84a.95.95,0,1,1-1,.95A.94.94,0,0,1,11.82,14.84Z" style="fill:#fff;fill-rule:evenodd"/><path d="M15.06,14.84a1,1,0,1,1-1,.95.95.95,0,0,1,1-.95Z" style="fill:#fff;fill-rule:evenodd"/><path d="M20.76,10.86a3.48,3.48,0,1,1,3.48-3.48A3.48,3.48,0,0,1,20.76,10.86Zm0-6.17a2.7,2.7,0,1,0,2.69,2.69A2.69,2.69,0,0,0,20.76,4.69Z" style="fill:#fff"/><path d="M21.09,6.35A.45.45,0,0,0,21,6.7h.51v.55H21v2h-.65v-2H20V6.71h.33V6.65a.89.89,0,0,1,.26-.7,1.05,1.05,0,0,1,.77-.25h.13v.56A.51.51,0,0,0,21.09,6.35Z" style="fill:#fff"/></svg>