<svg id="Layer_1" data-name="Layer 1" xmlns="http://www.w3.org/2000/svg" viewBox="0 0 28 28"><title>Business Hour-01-01</title><g id="Layer_2" data-name="Layer 2"><g id="Layer_1-2" data-name="Layer 1-2"><path d="M3.37,23.91a.25.25,0,0,1-.34-.1.32.32,0,0,1,0-.14v-3.3a1.67,1.67,0,0,1,1.63-1.71h6.31a1.67,1.67,0,0,1,1.72,1.62v.09h0v3.3a.38.38,0,0,1-.37.36.32.32,0,0,1-.37-.26v-3.4a1.1,1.1,0,0,0-1.1-1.1H4.71a1.1,1.1,0,0,0-1.1,1.1h0v3.3A.26.26,0,0,1,3.37,23.91Zm2.69-11a2,2,0,0,1,1.71-.73H8a2.19,2.19,0,0,1,2.2,2.18v.26l-.12,1.22a2.21,2.21,0,0,1-4.4,0l-.12-1.22a2.17,2.17,0,0,1,.49-1.71Zm0,1.71.12,1.22a1.61,1.61,0,0,0,1.71,1.47,1.7,1.7,0,0,0,1.47-1.47l.12-1.22a1.47,1.47,0,0,0-1.23-1.69,1.06,1.06,0,0,0-.25,0H7.77A1.83,1.83,0,0,0,6.06,14.62Zm8.06-.36c.12,0,.12,0,.25-.13L19,9.61a.38.38,0,0,0,0-.49.24.24,0,0,0-.34,0l0,0-4.4,4.4L11.92,11.2a.38.38,0,0,0-.49,0,.24.24,0,0,0,0,.34l0,0,2.45,2.56C13.88,14.26,14,14.38,14.12,14.26Zm0-11.13A10.9,10.9,0,0,0,3.24,14h0a12.72,12.72,0,0,0,.62,3.67c0,.12.12.24.36.24s.25-.12.25-.36v-.13h0a10.29,10.29,0,1,1,13.21,6.11h0a11.28,11.28,0,0,1-3.55.62c-.12,0-.36.12-.36.24s.12.37.24.37h.12a10.82,10.82,0,0,0,0-21.64h0Zm0,19.56a8.59,8.59,0,0,0,8.68-8.5v-.3a8.69,8.69,0,0,0-17-2.57c0,.12,0,.37.25.37s.36,0,.36-.12h0a8.12,8.12,0,0,1,7.46-5.75V7.41c0,.12.24.25.36.25a.28.28,0,0,0,.25-.25V5.82a8,8,0,0,1,7.82,7.82H20.84a.38.38,0,0,0-.36.37.32.32,0,0,0,.26.37h1.57a8,8,0,0,1-7.82,7.82V20.73c0-.12-.12-.36-.25-.36s-.36.12-.36.24v2c0,.12.12.24.24.12Z" style="fill:#fff"/></g></g></svg>