<svg id="Layer_1" data-name="Layer 1" xmlns="http://www.w3.org/2000/svg" viewBox="0 0 28 28"><title>Text Tilt-01-01-01</title><path d="M23.53,13.76a.36.36,0,0,1,.37.35h0a.38.38,0,0,1-.3.43.38.38,0,0,1-.43-.31.24.24,0,0,1,0-.12h0a.32.32,0,0,1,.28-.36h.08m0-1.23A1.57,1.57,0,1,0,25,14.24V14a1.42,1.42,0,0,0-1.37-1.47h-.1" style="fill:#fff"/><polygon points="6.06 3 5.08 10.46 6.42 10.46 7.16 4.47 22.43 6.42 21.95 10.46 23.29 10.46 23.9 5.32 6.06 3" style="fill:#fff"/><polygon points="22.56 17.54 21.21 17.54 20.48 23.53 5.2 21.58 5.69 17.54 4.47 17.54 3.73 22.68 21.58 25 22.56 17.54" style="fill:#fff"/><path d="M18.77,13a1,1,0,1,0,0,2h0a1.06,1.06,0,0,0,1-1c.13-.61-.36-1-1-1h0" style="fill:#fff"/><path d="M14,13a.93.93,0,1,0,.14,0H14" style="fill:#fff"/><path d="M9.23,13a1,1,0,0,0,0,2,1.06,1.06,0,0,0,1-1,.94.94,0,0,0-.85-1H9.23" style="fill:#fff"/><path d="M4.59,13.76A.33.33,0,0,1,5,14H5v.08c0,.12-.13.37-.25.37H4.59c-.25,0-.37-.37-.37-.49s.12-.24.37-.24m0-1.23A1.52,1.52,0,0,0,3,13.94V14H3a1.59,1.59,0,1,0,3.18.24h0a1.74,1.74,0,0,0-1.59-1.71h0" style="fill:#fff"/></svg>