<svg id="Layer_1" data-name="Layer 1" xmlns="http://www.w3.org/2000/svg" viewBox="0 0 28 28"><title>Next person-01-01</title><path d="M14,11.44h0a3.5,3.5,0,0,0,2.43-1,5.64,5.64,0,0,0,1-4.21,3.6,3.6,0,0,0-1.66-3.07A3.11,3.11,0,0,0,14,2.5h0a3,3,0,0,0-1.79.5,3.1,3.1,0,0,0-1.66,3.07,6.69,6.69,0,0,0,1,4.21A3.15,3.15,0,0,0,14,11.44ZM11.44,6.21h0a2.47,2.47,0,0,1,2.23-2.68H14a2.56,2.56,0,0,1,2.56,2.56v.13h0a5,5,0,0,1-.9,3.57,2.51,2.51,0,0,1-1.79.77h0a2.51,2.51,0,0,1-1.79-.77A5.68,5.68,0,0,1,11.44,6.21Z" style="fill:#fff"/><path d="M21,15.66h0a2.9,2.9,0,0,0-1.54-2.94h0a8.53,8.53,0,0,1-2.93-1.28c-.26-.12-.52-.12-.64.13s-.13.51.12.64h0a9.63,9.63,0,0,0,3.07,1.41c.77.25.9,1.15.9,1.91v.13a2.42,2.42,0,0,1-.13,1,13.73,13.73,0,0,1-6,1.41,12.17,12.17,0,0,1-6-1.41c0-.38-.13-.76-.13-1v-.13c0-.76.13-1.66.89-1.91a8.5,8.5,0,0,0,3.07-1.41.69.69,0,0,0,.38-.51.65.65,0,0,0-.51-.38c-.13,0-.13.12-.25.12a7.88,7.88,0,0,1-2.81,1.28h0A2.82,2.82,0,0,0,7,15.53v.13H7a6.05,6.05,0,0,0,.13,1.53c0,.13.13.13.13.26a13,13,0,0,0,6.51,1.66,12.29,12.29,0,0,0,6.65-1.66c.13,0,.13-.13.13-.26A1.86,1.86,0,0,0,21,15.66Z" style="fill:#fff"/><polygon points="21.03 22.56 6.97 18.6 6.97 21.03 21.03 25.5 21.03 22.56" style="fill:#fff"/></svg>