<svg id="Layer_1" data-name="Layer 1" xmlns="http://www.w3.org/2000/svg" viewBox="0 0 28 28"><title>Hotspot</title><g id="Layer_2" data-name="Layer 2"><g id="Layer_1-2" data-name="Layer 1-2"><path d="M14,24.41A8.55,8.55,0,0,0,20.06,9.82l-1,1a7.19,7.19,0,1,1-10.17,0l-1-1A8.55,8.55,0,0,0,14,24.41Zm0-3.51a5.05,5.05,0,0,0,3.58-8.62l-1,1a3.69,3.69,0,1,1-5.22,0l-1-1A5.05,5.05,0,0,0,14,20.91Zm0-3.3a1.75,1.75,0,1,0-1.75-1.75A1.75,1.75,0,0,0,14,17.61Z" style="fill:#fff"/><rect x="9.57" y="7.4" width="8.86" height="1.24" style="fill:#fff"/><rect x="13.38" y="3.59" width="1.24" height="8.86" style="fill:#fff"/></g></g></svg>