<svg id="Layer_1" data-name="Layer 1" xmlns="http://www.w3.org/2000/svg" viewBox="0 0 28 28"><title>Creative Team-01-01</title><g id="Layer_2" data-name="Layer 2"><g id="Layer_1-2" data-name="Layer 1-2"><path d="M3.24,15a1.67,1.67,0,0,1,1.61-1.73H5a1.71,1.71,0,0,1,0,3.42H5A1.84,1.84,0,0,1,3.24,15Zm2.82,0a1.1,1.1,0,1,0-1.12,1.08H5A1.11,1.11,0,0,0,6.06,15Z" style="fill:#fff"/><path d="M5,16.93A2,2,0,1,1,4.25,13,1.89,1.89,0,0,1,5,13a1.93,1.93,0,0,1,2,1.86V15H7a1.91,1.91,0,0,1-1.91,1.93Zm.73-3.17a1.38,1.38,0,0,1,.56,1.88.75.75,0,0,1-.07.12c-.12.25-.37.37-.49.49a1.4,1.4,0,0,0,.55-1.9l-.06-.1a1,1,0,0,0-.53-.49ZM5,14.12a.86.86,0,1,0-.19,1.71H5A.83.83,0,0,0,5.81,15h0a.85.85,0,0,0-.8-.88Z" style="fill:#fff"/><path d="M3.24,8.38A1.67,1.67,0,0,1,4.87,6.67H5A1.75,1.75,0,0,1,6.67,8.38a1.66,1.66,0,0,1-1.5,1.82H5.08A1.68,1.68,0,0,1,3.25,8.7a.22.22,0,0,1,0-.08Zm2.82,0A1.1,1.1,0,1,0,5,9.48H5a1,1,0,0,0,1.1-.89.74.74,0,0,0,0-.21Z" style="fill:#fff"/><path d="M5,10.46A2.12,2.12,0,0,1,3,8.38a2,2,0,1,1,3.91-.84,2,2,0,0,1,0,.84A2,2,0,0,1,5,10.46ZM5,7A1.35,1.35,0,0,1,6.3,8.38,1.33,1.33,0,0,1,5.57,9.6a1.51,1.51,0,0,0,.49-2,1.35,1.35,0,0,0-1.84-.36,1,1,0,0,0-.49.49A1.36,1.36,0,0,1,5,7Zm0,.61a.86.86,0,1,0,.85.87h0A.85.85,0,0,0,5,7.64H5Z" style="fill:#fff"/><path d="M3.24,20.84a1.57,1.57,0,0,1,1.55-1.59H5a1.56,1.56,0,0,1,1.55,1.57,1,1,0,0,1,0,.17,1.48,1.48,0,0,1-1.38,1.56H5a1.68,1.68,0,0,1-1.72-1.64v-.08Zm2.82,0a1.1,1.1,0,1,0-2.2,0,1.08,1.08,0,0,0,1.06,1.1H5A1.1,1.1,0,0,0,6.06,20.84Z" style="fill:#fff"/><path d="M5,22.8a2,2,0,1,1-.84-3.91,2,2,0,0,1,.84,0,1.93,1.93,0,0,1,2,1.84v.11H7a1.92,1.92,0,0,1-1.9,2Zm.73-3.18a1.4,1.4,0,0,1,.55,1.9l-.06.1c-.12.24-.37.36-.49.49a1.4,1.4,0,0,0,.55-1.9l-.06-.1a1,1,0,0,0-.53-.49ZM5,20a.86.86,0,1,0,.85.87v0A.85.85,0,0,0,5,20Z" style="fill:#fff"/><g id="_02_User" data-name=" 02 User"><path d="M16.93,5.08a5,5,0,1,0,5,5h0A5,5,0,0,0,16.93,5.08Zm0,8.31a3.3,3.3,0,1,1,3.3-3.3h0A3.28,3.28,0,0,1,17,13.39Z" style="fill:#fff"/><path d="M24.88,19.87a7.54,7.54,0,0,0-2.69-4.16.93.93,0,0,0-1.22.12h0a1,1,0,0,0,.12,1.23h0a6.58,6.58,0,0,1,2.2,3.3,1.08,1.08,0,0,1-.12.61,1,1,0,0,1-.61.24.86.86,0,0,0-.19,1.71h.19A2.45,2.45,0,0,0,25,20.48.93.93,0,0,0,24.88,19.87Z" style="fill:#fff"/><path d="M19.5,21.21H11.31a.63.63,0,0,1-.49-.24.93.93,0,0,1-.12-.61,6.67,6.67,0,0,1,2.08-3.3.84.84,0,0,0,0-1.19l0,0a.92.92,0,0,0-1.1-.12A7.67,7.67,0,0,0,9,19.87a2.35,2.35,0,0,0,1.61,2.91l.09,0c.24,0,.37.12.61.12H19.5a.86.86,0,1,0,.19-1.71A.6.6,0,0,0,19.5,21.21Z" style="fill:#fff"/></g></g></g></svg>