<svg id="Layer_1" data-name="Layer 1" xmlns="http://www.w3.org/2000/svg" viewBox="0 0 28 28"><title>Gradient-01-01</title><path d="M23.66,4.22l.12.12V15.59c0,.12,0,.12-.12.12H4.34c-.12,0-.12,0-.12-.12h0V4.34l.12-.12H23.66m0-1.22H4.34A1.35,1.35,0,0,0,3,4.34H3V15.59a1.35,1.35,0,0,0,1.34,1.34H23.53a1.36,1.36,0,0,0,1.35-1.34V4.34A1.22,1.22,0,0,0,23.81,3h-.15" style="fill:#fff"/><rect x="13.39" y="3" width="1.22" height="14.06" style="fill:#fff"/><path d="M7.16,20.72c.12,0,.12,0,.12.12h0v2.69c0,.13,0,.13-.12.13H4.34c0,.12-.12,0-.12,0V21c0-.13,0-.13.12-.13H7.16m0-1.34H4.34A1.35,1.35,0,0,0,3,20.84v2.69A1.39,1.39,0,0,0,4.29,25H7a1.36,1.36,0,0,0,1.35-1.34V21a1.26,1.26,0,0,0-1-1.47h-.2" style="fill:#fff"/><path d="M23.66,20.72c.12,0,.12,0,.12.12h0v2.69c0,.13,0,.13-.12.13H21c-.13,0-.13,0-.13-.13h0V20.84c0-.12,0-.12.13-.12h2.69m0-1.22H21a1.36,1.36,0,0,0-1.35,1.34v2.69A1.37,1.37,0,0,0,21,24.88h2.69A1.36,1.36,0,0,0,25,23.53h0V20.84a1.35,1.35,0,0,0-1.34-1.34" style="fill:#fff"/><path d="M16.08,22.8a2,2,0,1,1-2-2,1.94,1.94,0,0,1,2,1.88v.12h0" style="fill:#fff"/></svg>