<svg id="Layer_1" data-name="Layer 1" xmlns="http://www.w3.org/2000/svg" viewBox="0 0 28 28"><title>Team Social Reveal-01-01-01</title><path d="M14,23.56a1.81,1.81,0,1,1,1.81-1.81h0A1.85,1.85,0,0,1,14,23.56Zm0-3a1.17,1.17,0,1,0,1.17,1.17h0A1.18,1.18,0,0,0,14,20.59Z" style="fill:#fff"/><g style="opacity:0.30000001192092896"><path d="M19,23.14a1.38,1.38,0,1,1,1.38-1.38h0A1.4,1.4,0,0,1,19,23.14ZM19,21a.77.77,0,0,0-.75.75.75.75,0,0,0,.75.74.74.74,0,0,0,.74-.74h0C19.85,21.33,19.53,21,19,21Z" style="fill:#fff"/></g><g style="opacity:0.30000001192092896"><path d="M9,23.14a1.38,1.38,0,1,1,1.38-1.38h0A1.4,1.4,0,0,1,9,23.14ZM9,21a.75.75,0,0,0-.74.75.74.74,0,0,0,1.48,0h0A.73.73,0,0,0,9,21Z" style="fill:#fff"/></g><path d="M16.45,7.31a3.44,3.44,0,0,1-.32,1.38A9.47,9.47,0,0,1,15.28,10a2.41,2.41,0,0,1-1.17.64,2.11,2.11,0,0,1-1.17-.32,3.41,3.41,0,0,1-1-1.17,3.41,3.41,0,0,1-.42-1.38,2.35,2.35,0,0,1,1.27-2.44A2.32,2.32,0,0,1,16,6l.09.16a2.53,2.53,0,0,1,.32,1.17.21.21,0,1,0,.42,0A2.86,2.86,0,0,0,14,4.44h0a3,3,0,0,0-2.76,1.91,2.78,2.78,0,0,0-.11,1.59,3.62,3.62,0,0,0,.54,1.49,3.28,3.28,0,0,0,.95,1.17,2.05,2.05,0,0,0,2.76,0,3.77,3.77,0,0,0,1.49-2.66V7.41c-.1-.1-.21-.21-.32-.1C16.45,7.2,16.45,7.31,16.45,7.31Z" style="fill:#fff"/><path d="M19.1,14.53v2.13l.22-.22H8.69l.21.22V14.21a2.47,2.47,0,0,1,2-2.12H12L11.77,12l1.91,2.66h0a.38.38,0,0,0,.32.1l.11-.1L16,12h0l-.21.11h.64a2.58,2.58,0,0,1,2.65,2.44c-.1.21,0,.32.22.32a.23.23,0,0,0,.21-.21,3,3,0,0,0-3-3h-.42c-.11,0-.32,0-.32.11L13.9,14.43h.42l-1.91-2.66c0-.11-.11-.21-.32-.21h-.42a6.49,6.49,0,0,0-1.39.21,3.07,3.07,0,0,0-1.8,2.44v2.45a.23.23,0,0,0,.21.21H19.32a.23.23,0,0,0,.21-.21V14.53a.19.19,0,0,0-.24-.14h-.08Z" style="fill:#fff"/><path d="M22.5,8.47a2.1,2.1,0,0,1-.42,1.39,2.11,2.11,0,0,1-1,1,1.08,1.08,0,0,1-.53.11h-.21c-.11,0-.21-.11-.32-.11a1.88,1.88,0,0,1-.85-1.17A2,2,0,0,1,19,8.26a1.86,1.86,0,0,1,2.23-1.38A2,2,0,0,1,22.5,8.47a.21.21,0,0,0,.17.26.22.22,0,0,0,.26-.17.14.14,0,0,0,0-.09,2.35,2.35,0,0,0-2.34-2.33,2.42,2.42,0,0,0-2.23,1.59,3.07,3.07,0,0,0,.74,3,2,2,0,0,0,1.28.74,2.25,2.25,0,0,0,1.38-.53,3.43,3.43,0,0,0,1.06-2.45.2.2,0,0,0-.25-.14H22.5C22.61,8.47,22.5,8.47,22.5,8.47Z" style="fill:#fff"/><path d="M20.91,14.21l1.49-2.12-.21.1a3.05,3.05,0,0,1,.95.11,1.67,1.67,0,0,1,1.06.85,1.74,1.74,0,0,1,.32,1.06v1.6l.22-.22H20.59a.21.21,0,0,0-.21.21h0a.21.21,0,0,0,.21.21h4.15a.23.23,0,0,0,.21-.21v-1.6A2.41,2.41,0,0,0,23.25,12a4.6,4.6,0,0,0-1.17-.11c-.11,0-.21.11-.32.22l-.21.32L20.38,14h0c-.11.11,0,.21.11.32S20.8,14.32,20.91,14.21Z" style="fill:#fff"/><path d="M9.22,8.47A2.1,2.1,0,0,1,8.8,9.86a2.11,2.11,0,0,1-1,1,1.28,1.28,0,0,1-.64.11H7c-.11,0-.21-.11-.32-.11a1.88,1.88,0,0,1-.85-1.17,1.82,1.82,0,0,1-.21-1.27,1.77,1.77,0,0,1,2-1.51h.12A1.62,1.62,0,0,1,9.22,8.47a.28.28,0,0,0,.25.32.09.09,0,0,0,.07,0c.11.11.21-.1.21-.21A2.35,2.35,0,0,0,7.42,6.24a2.3,2.3,0,0,0-2.24,1.6,3.38,3.38,0,0,0,.75,3,2,2,0,0,0,1.27.75A2.24,2.24,0,0,0,8.58,11,3.45,3.45,0,0,0,9.65,8.58c0-.11-.11-.21-.32-.21Z" style="fill:#fff"/><path d="M7.42,15.49H3.16l.22.21V14.11A2,2,0,0,1,5,12.19h.74l-.21-.1L7,14.21a.42.42,0,0,0,.32.11c.32,0,.42-.21.32-.32v-.11L6.57,12.51l-.43-.64c-.11-.1-.11-.21-.32-.21H5.4a2.49,2.49,0,0,0-2.34,1.81,2.8,2.8,0,0,0-.11,1V15.7a.23.23,0,0,0,.21.21H7.31a.23.23,0,0,0,.21-.21C7.63,15.59,7.52,15.49,7.42,15.49Z" style="fill:#fff"/></svg>