<svg id="Layer_1" data-name="Layer 1" xmlns="http://www.w3.org/2000/svg" viewBox="0 0 28 28"><path d="M22.16,8.46,17.57,3.89a1,1,0,0,0-.71-.29H9A1.43,1.43,0,0,0,7.56,5V21A1.42,1.42,0,0,0,9,22.37H21.05a1.42,1.42,0,0,0,1.4-1.4V9.17A1.17,1.17,0,0,0,22.16,8.46ZM17.62,5.65l2.76,2.76H17.82a.2.2,0,0,1-.2-.2ZM21.25,21c-.05.11-.11.2-.25.2H9a.2.2,0,0,1-.2-.2V5a.19.19,0,0,1,.2-.2h7.5v3.4a1.42,1.42,0,0,0,1.4,1.4h3.39Z" style="fill:#fff"/><path d="M19,23.17H7.76a1,1,0,0,1-1-1V7a.6.6,0,0,0-1.2,0V22.19A2.23,2.23,0,0,0,7.76,24.4h11.3a.63.63,0,0,0,.61-.6A.67.67,0,0,0,19,23.17Z" style="fill:#fff"/><path d="M10.58,13.71H16.5a.6.6,0,1,0,0-1.2H10.58a.6.6,0,0,0,0,1.2Z" style="fill:#fff"/><path d="M10,15.65a.6.6,0,0,0,.6.6h8.6a.6.6,0,0,0,.6-.6.6.6,0,0,0-.6-.6h-8.6A.6.6,0,0,0,10,15.65Z" style="fill:#fff"/><path d="M19.18,17.58h-8.6a.61.61,0,0,0,0,1.21h8.6a.61.61,0,0,0,0-1.21Z" style="fill:#fff"/><path d="M11.7,6.9a.66.66,0,0,0-.17.53h.77v.82h-.77v3h-1v-3h-.49V7.44h.49V7.35a1.36,1.36,0,0,1,.39-1,1.62,1.62,0,0,1,1.16-.37h.2v.84A.89.89,0,0,0,11.7,6.9Z" style="fill:#fff"/></svg>