<svg id="Layer_1" data-name="Layer 1" xmlns="http://www.w3.org/2000/svg" viewBox="0 0 28 28"><path d="M11.5,5.07a11.82,11.82,0,0,1-2.18,7.22,1.61,1.61,0,0,0-1.12-.46H3.9a1.62,1.62,0,0,0-1.61,1.61v9.68A1.62,1.62,0,0,0,3.9,24.73H8.2a1.58,1.58,0,0,0,1.16-.5,6.62,6.62,0,0,0,.63.45,4,4,0,0,0,1.74.53c1.42.15,3.65,0,8.84.06a.8.8,0,0,0,.51-.19,4.73,4.73,0,0,0,1.76-2.61.88.88,0,0,0,.24-.19,4.16,4.16,0,0,0,1-3.11.43.43,0,0,0,.11-.12A4,4,0,0,0,25,15.47a3.1,3.1,0,0,0,.67-2.24,2.66,2.66,0,0,0-1.58-2.14.87.87,0,0,0-.32-.06H17.17a11.06,11.06,0,0,0-.84-6.72,3.05,3.05,0,0,0-2.15-1.59A2.44,2.44,0,0,0,11.5,5.07Zm2.34-.76a1.31,1.31,0,0,1,1.08.8,10.56,10.56,0,0,1,.56,6.57.85.85,0,0,0,.79,1h7.29a1,1,0,0,1,.53.77,1.6,1.6,0,0,1-.43,1.11H21.1a.84.84,0,0,0-.81.81.83.83,0,0,0,.81.8h2.41a2.44,2.44,0,0,1-.42,1.61H20.57a.81.81,0,1,0,0,1.62h1.86A2.45,2.45,0,0,1,22,21H20a.84.84,0,0,0-.81.81.83.83,0,0,0,.81.8h1.09a3.14,3.14,0,0,1-.89,1.08c-4.89,0-7.22.06-8.33-.05a2.31,2.31,0,0,1-1.07-.31,9.86,9.86,0,0,1-1-.77V14.36a14.33,14.33,0,0,0,3.29-9.21C13.22,4.54,13.52,4.31,13.84,4.31ZM3.9,13.44H8.2c0,3.21,0,6.45,0,9.68H3.9Zm2.15,6.19A1.08,1.08,0,1,0,7.13,20.7a1.07,1.07,0,0,0-1.08-1.07Z" style="fill:#fff"/><path d="M6.89,4.6a.9.9,0,0,0-.23.7h1V6.4h-1v4H5.37v-4H4.73V5.31h.64V5.19A1.85,1.85,0,0,1,5.89,3.8a2.16,2.16,0,0,1,1.53-.49h.26V4.44A1.08,1.08,0,0,0,6.89,4.6Z" style="fill:#fff"/></svg>