<svg id="Layer_1" data-name="Layer 1" xmlns="http://www.w3.org/2000/svg" viewBox="0 0 28 28"><title>Team Member Overlay Icon-01-01-01</title><path d="M22.06,16.83c-.24-.12-.6-.24-.84-.36L21,16.35a1,1,0,0,1-.6-.37c0-.12-.12-.25-.12-.49A2,2,0,0,0,21,13.91a1.82,1.82,0,0,0-1.6-2h-.1a1.89,1.89,0,0,0-1.72,2,2,2,0,0,0,.74,1.58.78.78,0,0,1-.12.49.7.7,0,0,1-.62.37h-.12l-.36-.12a2.45,2.45,0,0,1-1.22-.74,1.21,1.21,0,0,1-.12-1A3,3,0,0,0,16.82,12a3,3,0,0,0-2.7-3.18h0a2.87,2.87,0,0,0-2.68,3h0a3.29,3.29,0,0,0,1.1,2.56,2.81,2.81,0,0,1-.12,1,2.68,2.68,0,0,1-1.24.74l-.36.12H10.7c-.24,0-.48-.25-.62-.37s-.12-.25-.12-.49a1.92,1.92,0,0,0,.74-1.58,1.83,1.83,0,0,0-1.62-2H9a1.9,1.9,0,0,0-1.82,2V14a2,2,0,0,0,.72,1.58.71.71,0,0,1-.12.49.67.67,0,0,1-.6.37l-.24.12c-.26.12-.62.24-.86.36A1.79,1.79,0,0,0,5.34,18v.38H6V18c0-.24.12-.48.36-.48L7,17.08,7.28,17a2.87,2.87,0,0,0,1-.61c.12-.12.12-.24.12-.49a1.07,1.07,0,0,0,.86,0c0,.12.12.25.12.49a.94.94,0,0,0,.48.48l-.48.25a1.9,1.9,0,0,0-1,1.59v.74H9v-.74a1.18,1.18,0,0,1,.74-1.1A7.9,7.9,0,0,1,11.06,17l.38-.13a2.39,2.39,0,0,0,1.46-1,2.3,2.3,0,0,0,.24-.85A2.45,2.45,0,0,0,15,15a1.81,1.81,0,0,0,.24.85,2.39,2.39,0,0,0,1.46,1l.38.13a6.49,6.49,0,0,1,1.34.61,1.33,1.33,0,0,1,.62,1.1v.74h.6v-.74a1.62,1.62,0,0,0-1-1.59l-.48-.25a.94.94,0,0,0,.48-.48c.12-.12.12-.24.12-.49a1.07,1.07,0,0,0,.86,0c0,.12.12.25.12.49a1.23,1.23,0,0,0,1,.61l.24.12.74.37a.64.64,0,0,1,.36.48v.38h.62V18A1.11,1.11,0,0,0,22.06,16.83ZM7.64,13.91A1.21,1.21,0,0,1,8.7,12.57h0a1.11,1.11,0,0,1,1.13,1.08,1.22,1.22,0,0,1,0,.27h0a1.2,1.2,0,0,1-1.05,1.33h0A1.26,1.26,0,0,1,7.64,13.91Zm4.28-2A2.3,2.3,0,0,1,14,9.51,2.3,2.3,0,0,1,16.08,12,2.31,2.31,0,0,1,14,14.39,2.31,2.31,0,0,1,11.92,12Zm6.24,2a1.2,1.2,0,0,1,1-1.34h0a1.1,1.1,0,0,1,1.12,1.08h0a1.22,1.22,0,0,1,0,.27h0a1.22,1.22,0,0,1-1.09,1.34h0a1.1,1.1,0,0,1-1.13-1.07A1.35,1.35,0,0,1,18.16,13.91Z" style="fill:#fff"/><path d="M7.88,6.09H7.16a10.4,10.4,0,0,1,13.68,0h-.72l.48.48h1.1V5.47L21.22,5v.72a11,11,0,0,0-14.3,0V5l-.5.48v1.1h1.1Z" style="fill:#fff"/><path d="M23.9,9.13l-.48.26A10.38,10.38,0,0,1,24.51,14,10.41,10.41,0,0,1,3.74,14a9.36,9.36,0,0,1,1.1-4.52L4.1,9.13a11,11,0,1,0,19.8,0Z" style="fill:#fff"/></svg>