<svg id="Layer_1" data-name="Layer 1" xmlns="http://www.w3.org/2000/svg" viewBox="0 0 28 28"><title>Circular-01-01</title><path d="M11.78,24.5a8.75,8.75,0,1,1,8.75-8.75A8.75,8.75,0,0,1,11.78,24.5Zm0-16.33a7.47,7.47,0,0,0,0,14.93h0a7.53,7.53,0,0,0,7.47-7.47,7.32,7.32,0,0,0-7.18-7.46h-.29Z" style="fill:#fff"/><path d="M19.25,14.82a6.6,6.6,0,0,1-1.52-.24.68.68,0,0,1-.47-.82.67.67,0,0,1,.82-.46,3.85,3.85,0,0,0,1.17.12h.47a.65.65,0,0,1,.7.58.67.67,0,0,1-.59.7C19.72,14.82,19.48,14.82,19.25,14.82Zm2.22-.59a.63.63,0,0,1-.59-.35.71.71,0,0,1,.24-.81,5.63,5.63,0,0,0,1.28-.94c.23-.23.7-.35.93-.11a.72.72,0,0,1,.12.93l-.12.12a8.76,8.76,0,0,1-1.63,1.28C21.7,14.23,21.58,14.23,21.47,14.23Zm-5.14-.46a.44.44,0,0,1-.35-.12,5.8,5.8,0,0,1-1.4-1.52c-.23-.23-.11-.46,0-.7a.44.44,0,0,1,.24-.11c.23-.24.46-.12.7,0a.38.38,0,0,1,.11.23,3.41,3.41,0,0,0,1,1.17.71.71,0,0,1,.12.93C16.68,13.65,16.45,13.77,16.33,13.77Zm7.59-2.22h-.24a.61.61,0,0,1-.37-.78l0,0h0a3.68,3.68,0,0,0,.35-1.63h0a3.68,3.68,0,0,0-.35-1.63.6.6,0,0,1,.31-.8l0,0a.6.6,0,0,1,.8.29s0,0,0,.06h0A13.93,13.93,0,0,1,25,9.1h0a6.56,6.56,0,0,1-.35,2.1A.86.86,0,0,1,23.92,11.55Zm-9.57-.82c-.23,0-.58-.23-.58-.46a3.34,3.34,0,0,1-.12-1,3.12,3.12,0,0,1,.12-1c.11-.35.35-.59.7-.47s.58.35.46.7a2.06,2.06,0,0,0-.11.82,2,2,0,0,0,.11.81.56.56,0,0,1-.23.7h-.35Zm.7-3.61A.41.41,0,0,1,14.7,7a.72.72,0,0,1-.23-.82,4.31,4.31,0,0,1,1.4-1.51.7.7,0,0,1,.93.11.71.71,0,0,1-.12.94,3.38,3.38,0,0,0-1,1.16A.87.87,0,0,1,15.05,7.12Zm8-.7a.57.57,0,0,1-.46-.24,4.93,4.93,0,0,0-1.29-.93.52.52,0,0,1-.34-.65A.56.56,0,0,1,21,4.43c.12-.23.47-.46.7-.35a8.81,8.81,0,0,1,1.63,1.29.69.69,0,0,1,0,.93C23.22,6.3,23.1,6.42,23,6.42ZM17.85,5a.77.77,0,0,1-.58-.47.66.66,0,0,1,.45-.82h0a7.17,7.17,0,0,1,1.52-.23h.47a.64.64,0,1,1-.12,1.28h-.35A4.4,4.4,0,0,0,18,5C18,4.9,18,5,17.85,5Z" style="fill:#fff;opacity:0.20000000298023224;isolation:isolate"/></svg>