<svg id="Layer_1" data-name="Layer 1" xmlns="http://www.w3.org/2000/svg" viewBox="0 0 28 28"><title>Price List-01-01-01</title><g id="Layer_2" data-name="Layer 2"><g id="Layer_1-2" data-name="Layer 1-2"><path d="M4.8,3a.52.52,0,0,0-.48.49V19.77a.52.52,0,0,0,.48.48.52.52,0,0,0,.49-.48V4h8.92V7a.52.52,0,0,0,.48.48h2.89v6.4a.68.68,0,0,0,.37.6.68.68,0,0,0,.6-.37V7a.44.44,0,0,0-.12-.38l-3.5-3.49c0-.11-.11-.11-.24-.11ZM15.17,4.69,17,6.49H15.2ZM9,9.39c-.11,0-.24.12-.35.12L7.58,10.84l-.36-.36a.46.46,0,0,0-.63-.1h0a.2.2,0,0,0-.09.09h0a.45.45,0,0,0-.09.63h0a.38.38,0,0,0,.09.09h0l.73.72a.45.45,0,0,0,.62.1.47.47,0,0,0,.1-.1h0l1.44-1.68a.45.45,0,0,0,.11-.62l-.11-.11h0A.41.41,0,0,0,9,9.39ZM10.23,11a.53.53,0,0,0-.48.49.52.52,0,0,0,.48.48h5.91a.52.52,0,0,0,.48-.48h0a.52.52,0,0,0-.48-.49ZM9,13.13c-.11,0-.24.11-.35.11L7.58,14.57l-.36-.36a.46.46,0,0,0-.64-.09l-.09.09a.46.46,0,0,0-.09.64l.09.08h0l.73.73a.46.46,0,0,0,.64.09l.08-.09h0L9.38,14a.45.45,0,0,0,.11-.62l-.11-.11A.43.43,0,0,0,9,13.13Zm1.21,1.44a.53.53,0,0,0-.48.49.52.52,0,0,0,.48.48h5.91a.52.52,0,0,0,.48-.48h0a.52.52,0,0,0-.48-.49Zm8.68.73a4.67,4.67,0,0,0-4.33,3H10.23a.5.5,0,1,0-.14,1h4.12a3.52,3.52,0,0,0,.12,1.93H4.69a.51.51,0,0,0-.49.48c.12.36.24.61.6.61h10a4.72,4.72,0,1,0,8.78-3.46,3.32,3.32,0,0,0-.25-.54,3.75,3.75,0,0,0-.24-.44,5.19,5.19,0,0,0-4.22-2.53Zm0,1a3.75,3.75,0,1,1-3.71,3.79V20h0a3.84,3.84,0,0,1,3.73-3.74ZM9,16.75c-.11,0-.24.11-.35.11L7.58,18.19l-.36-.36a.46.46,0,0,0-.64-.09.2.2,0,0,0-.09.09.46.46,0,0,0-.09.64l.09.08h0l.73.73a.45.45,0,0,0,.63.09h0l.08-.08h0l1.44-1.69A.45.45,0,0,0,9.49,17l-.11-.11h0A.49.49,0,0,1,9,16.75Zm9.78.36a.53.53,0,0,0-.49.48V18a1,1,0,0,0-.48.24,1.19,1.19,0,0,0-.48,1.09h0a1.42,1.42,0,0,0,.48,1,2.35,2.35,0,0,0,.84.37.63.63,0,0,1,.49.24c.11,0,.11,0,.11.23h0c0,.13,0,.25-.11.25a.48.48,0,0,1-.36.12h0a.54.54,0,0,1-.61-.37.67.67,0,0,0-.61-.35.69.69,0,0,0-.36.6v.12a1.54,1.54,0,0,0,1,.72v.37a.52.52,0,0,0,.48.48h0a.53.53,0,0,0,.49-.48h0v-.44a1.09,1.09,0,0,0,.48-.24,1.17,1.17,0,0,0,.48-1.09h0a1.07,1.07,0,0,0-.48-1c-.24-.13-.6-.24-.84-.36a.66.66,0,0,1-.49-.24c-.12,0-.12,0-.12-.24s0-.25.12-.25a.44.44,0,0,1,.36-.11h0a.53.53,0,0,1,.6.36c.13.24.37.48.61.36s.48-.36.36-.61v-.11h0v-.13a1.48,1.48,0,0,0-1-.72v-.37c.13-.11,0-.35-.47-.35Z" style="fill:#fff"/></g></g></svg>