<svg id="Layer_1" data-name="Layer 1" xmlns="http://www.w3.org/2000/svg" viewBox="0 0 28 28"><g id="Layer_2" data-name="Layer 2"><g id="Layer_1-2" data-name="Layer 1-2"><polygon points="23.9 21.03 23.23 21.03 23.23 4.63 14.19 4.63 14.19 3.96 23.9 3.96 23.9 21.03" style="fill:#fff"/><path d="M11.38,6.63,7.16,10.85V12h.67v-.67h0v0h0s0,0,0-.06h0A.27.27,0,0,1,8,11.08l0,0L8,11h0l0,0v0a1.08,1.08,0,0,1,.16-.2l.05-.06h0l2.87-2.87h0l0,0,.06,0h0a.36.36,0,0,1,.07-.1.88.88,0,0,1,.15-.12.81.81,0,0,1,.28-.17h8.78V23.38H7.83V22.7H7.16V24H21.23V6.63Z" style="fill:#fff"/><polygon points="12.85 5.29 12.85 5.96 21.89 5.96 21.89 22.37 22.56 22.37 22.56 5.29 12.85 5.29" style="fill:#fff"/><path d="M18.26,12.52H4.1v9.66H18.26Zm-.64.64v5.67l-4-4L9.24,19.14,7.32,17.22,4.74,19.79V13.16ZM4.74,20.7l2.58-2.57,3.4,3.41h-6Zm6.9.84L9.7,19.6l3.89-3.89,4,4v1.8Z" style="fill:#fff"/><path d="M9.57,16.71a1.29,1.29,0,1,0-1.29-1.29h0a1.29,1.29,0,0,0,1.29,1.29Zm0-1.94a.65.65,0,1,1-.64.65h0A.64.64,0,0,1,9.57,14.77Z" style="fill:#fff"/></g></g></svg>