<svg id="Layer_1" data-name="Layer 1" xmlns="http://www.w3.org/2000/svg" viewBox="0 0 28 28"><title>Effect Pro-01-01</title><path d="M14.88,9.15V22.83H3.63V9.15H14.88m.55-1.1H3.08a.5.5,0,0,0-.55.44V8.6h0V23.38a.5.5,0,0,0,.44.55H15.32a.51.51,0,0,0,.56-.44v-.11h0V8.6c.11-.22-.11-.44-.34-.55Z" style="fill:#fff"/><g style="opacity:0.3499999940395355"><path d="M21.5,8.6h-.88c-.33.11-.55-.11-.66-.44s.11-.55.44-.66h1.1c.33.11.55.33.44.66S21.72,8.49,21.5,8.6Z" style="fill:#fff"/><path d="M24.48,23.93H24c-.33-.11-.55-.33-.44-.66a.46.46,0,0,1,.44-.44h.33v-.44c.11-.33.33-.55.66-.44a.46.46,0,0,1,.44.44v.44A1.17,1.17,0,0,1,24.48,23.93Zm-2,0H20.84c-.33-.11-.55-.33-.44-.66a.46.46,0,0,1,.44-.44h1.65c.34.11.56.33.45.66s-.23.44-.45.44Zm2.43-2.53a.52.52,0,0,1-.55-.45v-.11h0V19.19c-.11-.33.11-.55.44-.66s.55.11.66.44v1.87a.53.53,0,0,1-.5.56Zm0-3.2a.5.5,0,0,1-.55-.45h0v-.11h0V16c.11-.33.33-.55.66-.44a.46.46,0,0,1,.44.44v1.65a.52.52,0,0,1-.48.56h-.07Zm0-3.2a.5.5,0,0,1-.55-.44v-.11h0V12.79c.11-.33.33-.55.66-.44a.46.46,0,0,1,.44.44v1.66A.52.52,0,0,1,25,15Zm0-3.2a.5.5,0,0,1-.55-.44v-.11h0V9.59c.11-.33.33-.55.66-.44a.46.46,0,0,1,.44.44v1.66a.52.52,0,0,1-.49.55h-.06ZM24.7,8.71a.38.38,0,0,1-.33-.11H23.05a.77.77,0,0,1-.67-.44c-.11-.33.11-.55.45-.66h1.65a.82.82,0,0,1,.55.22.53.53,0,0,1,0,.75l0,0h0C25,8.6,24.92,8.71,24.7,8.71Z" style="fill:#fff"/><path d="M19.3,23.93h-.89c-.33.11-.55-.11-.66-.44s.11-.55.44-.66H19.3c.33-.11.55.11.66.44s-.11.55-.44.66Z" style="fill:#fff"/></g><path d="M15.54,23.93h-.22a.75.75,0,0,1-.44-.66V8.82A.68.68,0,0,1,15,8.38L17.75,4.3a.71.71,0,0,1,1-.22h0a.58.58,0,0,1,.33.55V20a.56.56,0,0,1-.22.44L16.1,23.6A.61.61,0,0,1,15.54,23.93Zm.34-15V22.06l2-2.21V6.17Z" style="fill:#fff"/></svg>