<svg id="Layer_1" data-name="Layer 1" xmlns="http://www.w3.org/2000/svg" viewBox="0 0 28 28"><title>Ultimate-01-01-01</title><path d="M20.33,10.89c.11,0,.34-.11.34-.22V8c0-.11-.11-.33-.23-.33H17.78a.33.33,0,1,0,0,.66h1.66l-4.22,4.23a.5.5,0,0,0,0,.55.52.52,0,0,0,.56,0L20,8.89v1.67A.35.35,0,0,0,20.33,10.89Z" style="fill:#fff"/><path d="M23.67,4H9.33C9.11,4,9,4.22,9,4.44H9V14H4.33c-.22,0-.33.22-.33.44H4v9.12c0,.22.11.44.33.44H15.11c.22,0,.33-.22.33-.44h0V19.11h8.23c.22,0,.33-.22.33-.44h0V4.44C24,4.22,23.89,4,23.67,4Zm-9,19.11h-10V14.89H9v3.89c0,.22.11.44.33.44h5.34Zm0-4.78h-5V14.89h5Zm8.55,0H15.33V14.44c0-.22-.11-.44-.33-.44H9.67V4.89H23.22Z" style="fill:#fff"/></svg>