<svg id="Layer_1" data-name="Layer 1" xmlns="http://www.w3.org/2000/svg" viewBox="0 0 28 28"><title>Flip Box-01-01</title><path d="M18.86,16.18c-.24-.24-.6-.37-.85-.12l-.12.12-6,7.66a.6.6,0,0,0,.09.83l0,0a.46.46,0,0,0,.37.12h12a.57.57,0,0,0,.61-.53v-.07a.43.43,0,0,0-.13-.37ZM13.64,23.6l4.62-6,4.62,6Z" style="fill:#fff"/><path d="M17.77,11.8c.24.24.61.37.85.12l.12-.12,6-7.66a.59.59,0,0,0-.08-.82l0,0c0-.25-.12-.25-.24-.25h-12a.58.58,0,0,0-.61.55v.06a.45.45,0,0,0,.12.37ZM23,4.38l-4.74,6-4.62-6Z" style="fill:#fff"/><path d="M12.3,14.6H24.22A.69.69,0,0,0,25,14v0a.69.69,0,0,0-.61-.73h-12a.68.68,0,0,0-.61.73A.59.59,0,0,0,12.3,14.6Z" style="fill:#fff"/><path d="M8.41,18.73a.76.76,0,0,0-1,0c-.36.25-.24.61,0,1l1.46,1.46h-1a3.59,3.59,0,0,1-3.65-3.53V10.71A3.58,3.58,0,0,1,7.73,7.06h2.74a.68.68,0,0,0,.61-.73c0-.24-.24-.49-.61-.61H7.92a4.88,4.88,0,0,0-4.87,4.87V17.4a4.89,4.89,0,0,0,4.87,4.86h1L7.43,23.84a.74.74,0,0,0,0,1c.25.37.61.25,1,0L11,22.26a.6.6,0,0,0,0-.83l0,0h0Z" style="fill:#fff"/></svg>