<svg id="Layer_1" data-name="Layer 1" xmlns="http://www.w3.org/2000/svg" viewBox="0 0 28 28"><title>3D Flip Box-01-01</title><path d="M7.39,18l6.5,3.3h.34l6.5-3.3c.11,0,.22-.23.22-.34V16.29a.34.34,0,0,0-.68,0h0v1.14l-5.81,3V13.66l5.81-3v4.45a.34.34,0,0,0,.68,0h0V10.24h-.11L14.23,6.6h-.34l-1,.57c-.11.11-.23.22-.11.45s.22.23.45.12l.8-.46,5.81,3-.34.23L14,13.21,8.53,10.47l-.34-.23,3.87-1.93c.23,0,.23-.23.23-.46s-.23-.23-.46-.23a.11.11,0,0,0-.11.11h0L7.27,10H7.16v2.5a.31.31,0,0,0,.27.35H7.5a.31.31,0,0,0,.34-.28V10.81l5.82,3v6.73l-5.82-3V14.12a.3.3,0,0,0-.25-.34H7.5a.3.3,0,0,0-.34.25v3.74A.26.26,0,0,0,7.39,18Z" style="fill:#fff"/><path d="M4.76,18.23,4,18.11A6.8,6.8,0,0,1,4,8.53H4a.54.54,0,0,1,.68-.11.52.52,0,0,1,.11.68l-.11.12a5.78,5.78,0,0,0,0,8.17l0,0Zm1-2.28a.48.48,0,0,0-.46-.46.49.49,0,0,0-.45.46v.11l.34,2.51-2.51-.34h0a.48.48,0,0,0-.45.45c0,.23.11.34.34.46l3.08.45h.11A.39.39,0,0,0,6.13,19l-.34-3Z" style="fill:#fff"/><path d="M23.24,9.79,24,9.9a6.8,6.8,0,0,1,0,9.58h0a.55.55,0,0,1-.68-.11.53.53,0,0,1,0-.57,5.78,5.78,0,0,0,0-8.17l0,0Zm-1,2.28a.46.46,0,0,0,.91,0V12l-.23-2.5,2.51.34h0a.48.48,0,0,0,.46-.46c0-.23-.12-.34-.34-.45l-3.08-.46h-.12A.52.52,0,0,0,21.9,9Z" style="fill:#fff"/></svg>