<svg id="Layer_1" data-name="Layer 1" xmlns="http://www.w3.org/2000/svg" viewBox="0 0 28 28"><title>Hover Box-01-01</title><g style="opacity:0.20000000298023224"><path d="M24.27,25H22.8a.54.54,0,0,1-.49-.49A.53.53,0,0,1,22.8,24h1.47l1,.12a.94.94,0,0,1-1,.88Zm-2.94,0H19.74a.52.52,0,0,1-.48-.49.53.53,0,0,1,.48-.49h1.59a.54.54,0,0,1,.49.49A.52.52,0,0,1,21.33,25ZM18.4,25H16.81a.49.49,0,0,1,0-1h1.47a.54.54,0,0,1,.49.49C18.77,24.76,18.64,25,18.4,25Zm-3.06,0H13.88a.52.52,0,0,1-.49-.49.54.54,0,0,1,.49-.49h1.46a.54.54,0,0,1,.49.49A.52.52,0,0,1,15.34,25Zm-2.93,0H10.82a.49.49,0,0,1,0-1h1.47a.54.54,0,0,1,.49.49C12.9,24.76,12.66,25,12.41,25ZM9.36,25H7.89a.52.52,0,0,1-.49-.49A.53.53,0,0,1,7.89,24H9.36a.53.53,0,0,1,.48.49.44.44,0,0,1-.38.49h-.1ZM6.42,25H4.83a.54.54,0,0,1-.49-.49A.53.53,0,0,1,4.83,24H6.3a.54.54,0,0,1,.49.49A.37.37,0,0,1,6.42,25Zm-3-.12c-.13,0-.25,0-.25-.12a1.29,1.29,0,0,1-.49-.86v-1a.54.54,0,0,1,.49-.49.54.54,0,0,1,.49.49v1a.45.45,0,0,1,.26.58v0l-.13.12c0,.25-.17.25-.41.25ZM24.76,23a.52.52,0,0,1-.49-.48V21.09a.5.5,0,0,1,1,0h0v1.47C25.37,22.8,25.12,23,24.76,23ZM3.24,22a.53.53,0,0,1-.48-.49V20a.52.52,0,0,1,.48-.49.52.52,0,0,1,.49.49v1.47c0,.35-.24.47-.49.6Zm21.52-2a.52.52,0,0,1-.49-.49V18a.5.5,0,0,1,1,0v1.5a.47.47,0,0,1-.51.61ZM3.24,19a.52.52,0,0,1-.48-.49V16.93a.53.53,0,0,1,.48-.49.54.54,0,0,1,.49.49V18.4C3.73,18.64,3.49,19,3.24,19Zm21.52-2a.54.54,0,0,1-.49-.49V15a.5.5,0,1,1,1,0h0v1.46c.1.35-.15.6-.51.6ZM3.24,16a.53.53,0,0,1-.48-.49V14a.53.53,0,0,1,.48-.49.54.54,0,0,1,.49.49h0v1.47c0,.24-.24.61-.49.61Zm21.52-2a.52.52,0,0,1-.49-.49V12a.5.5,0,1,1,1,0v1.47a.49.49,0,0,1-.51.65ZM3.24,13a.52.52,0,0,1-.48-.49V11.07a.52.52,0,0,1,.48-.49.52.52,0,0,1,.49.49v1.46A.51.51,0,0,1,3.24,13Zm21.52-1.83a.54.54,0,0,1-.49-.49V9.11a.5.5,0,1,1,1,0h0v1.47a.47.47,0,0,1-.51.61ZM3.24,10.09a.53.53,0,0,1-.48-.49V8a.53.53,0,0,1,.48-.49A.54.54,0,0,1,3.73,8V9.48C3.73,9.72,3.49,10.09,3.24,10.09Zm21.52-2a.52.52,0,0,1-.49-.49V6.18a.5.5,0,0,1,1,0h0V7.64a.44.44,0,0,1-.38.49h-.1ZM3.24,7a.52.52,0,0,1-.48-.49V5.08a.52.52,0,0,1,.48-.49.52.52,0,0,1,.49.49V6.67C3.73,6.91,3.49,7,3.24,7ZM24.76,5.2a.52.52,0,0,1-.49-.49V4h-.13a.53.53,0,0,1-.48-.49c0-.25.36-.49.61-.49h.12a1,1,0,0,1,1,1h0v.61C25.24,5,25.12,5.2,24.76,5.2ZM3.37,4.1c-.25.12-.49-.12-.49-.37s0-.36.12-.36A1,1,0,0,1,3.73,3h1.1a.52.52,0,0,1,.49.49A.53.53,0,0,1,4.83,4H3.73A.43.43,0,0,1,3.37,4.1ZM22.8,4H21.33a.54.54,0,0,1-.49-.49c0-.25.13-.49.37-.49h1.47a.54.54,0,0,1,.49.49C23.17,3.73,23,4,22.8,4ZM19.74,4H18.28a.54.54,0,0,1-.49-.49c0-.25.12-.49.37-.49h1.58a.52.52,0,0,1,.49.49A.54.54,0,0,1,19.74,4ZM16.81,4H15.22a.54.54,0,0,1-.49-.49A.53.53,0,0,1,15.22,3h1.47a.54.54,0,0,1,.49.49C17.18,3.73,17.06,4,16.81,4Zm-3,0H12.29a.54.54,0,0,1-.49-.49A.52.52,0,0,1,12.29,3h1.47a.52.52,0,0,1,.48.49.45.45,0,0,1-.41.49h-.07Zm-3,0H9.36a.54.54,0,0,1-.49-.49c0-.25.12-.49.36-.49h1.59a.52.52,0,0,1,.49.49A.54.54,0,0,1,10.82,4ZM7.89,4H6.3a.54.54,0,0,1-.49-.49A.53.53,0,0,1,6.3,3H7.89a.54.54,0,0,1,.49.49A.53.53,0,0,1,7.89,4Z" style="fill:#fff"/></g><path d="M6.42,18.64l7.46,3.79h.36l7.46-3.79c.12-.12.24-.24.24-.36V16.81a.38.38,0,0,0-.3-.43.38.38,0,0,0-.43.31.24.24,0,0,0,0,.12V18l-6.72,3.43v-7.7l6.72-3.43v4.89a.38.38,0,0,0,.3.43.38.38,0,0,0,.43-.31.24.24,0,0,0,0-.12V9.72h0V9.6h-.12L14.37,5.81H14l-1.22.37c-.25.12-.25.24-.25.49s.25.24.49.24h.12L14,6.42l6.6,3.42-.37.25L14,13.14,7.77,10,7.4,9.72l4.4-2.2c.2-.12.2-.24.2-.52s-.24-.24-.48-.24h-.13l-5,2.57H6.3v.12h0v2.93a.32.32,0,0,0,.26.37h.11A.32.32,0,0,0,7,12.44V10.33l6.73,3.43v7.7L6.91,18V14.12a.32.32,0,0,0-.27-.36h-.1a.32.32,0,0,0-.36.27v.09h0v4.16C6.18,18.4,6.3,18.52,6.42,18.64Z" style="fill:#fff"/></svg>