<svg id="Layer_1" data-name="Layer 1" xmlns="http://www.w3.org/2000/svg" viewBox="0 0 28 28"><title>Feature List</title><path d="M12.46,9H23.83a1.27,1.27,0,1,0,0-2.53H12.46a1.27,1.27,0,1,0,0,2.53Z" style="fill:#fff"/><path d="M23.83,13.59H12.46a1.27,1.27,0,1,0,0,2.53H23.83a1.27,1.27,0,1,0,0-2.53Z" style="fill:#fff"/><path d="M23.83,20.14H12.46a1.26,1.26,0,1,0,0,2.52H23.83a1.26,1.26,0,1,0,0-2.52Z" style="fill:#fff"/><path d="M8.14,6.75H6.61L6.13,5.29A.41.41,0,0,0,5.73,5a.43.43,0,0,0-.4.29L4.86,6.75H3.33a.42.42,0,0,0-.25.76l1.24.9L3.84,9.87a.43.43,0,0,0,.16.47.4.4,0,0,0,.49,0l1.24-.9,1.24.9a.41.41,0,0,0,.25.08.38.38,0,0,0,.25-.08.41.41,0,0,0,.15-.47L7.15,8.41l1.24-.9A.41.41,0,0,0,8.54,7,.42.42,0,0,0,8.14,6.75Z" style="fill:#fff"/><path d="M6.79,23H4.67a.8.8,0,0,1-.79-.8V20.09a.8.8,0,0,1,.79-.8H6.79a.8.8,0,0,1,.8.8V22.2A.8.8,0,0,1,6.79,23ZM4.84,22H6.63V20.25H4.84Z" style="fill:#fff"/><path d="M6.79,16.71H4.67a.8.8,0,0,1-.79-.8V13.8a.8.8,0,0,1,.79-.8H6.79a.8.8,0,0,1,.8.8v2.11A.8.8,0,0,1,6.79,16.71Zm-1.95-1H6.63V14H4.84Z" style="fill:#fff"/></svg>