<svg id="Layer_1" data-name="Layer 1" xmlns="http://www.w3.org/2000/svg" viewBox="0 0 28 28"><path d="M16.42,13.67a5.41,5.41,0,0,1-1.54.42,2.62,2.62,0,0,0,1.17-1.48,5.16,5.16,0,0,1-1.69.65,2.73,2.73,0,0,0-2-.85,2.69,2.69,0,0,0-2.68,2.68,2.93,2.93,0,0,0,.06.61,7.56,7.56,0,0,1-5.52-2.8,2.71,2.71,0,0,0-.36,1.36,2.65,2.65,0,0,0,1.19,2.22,2.6,2.6,0,0,1-1.21-.33v0A2.68,2.68,0,0,0,6,18.81a2.63,2.63,0,0,1-.7.09,2.92,2.92,0,0,1-.51,0,2.7,2.7,0,0,0,2.51,1.86A5.37,5.37,0,0,1,4,21.86a4.5,4.5,0,0,1-.64,0,7.63,7.63,0,0,0,11.74-6.42c0-.12,0-.24,0-.35A5.37,5.37,0,0,0,16.42,13.67Z" style="fill:#fff"/><path d="M20.47,13.32a4.18,4.18,0,1,1,4.18-4.18A4.18,4.18,0,0,1,20.47,13.32Zm0-7.77a3.6,3.6,0,1,0,3.59,3.59A3.59,3.59,0,0,0,20.47,5.55Z" style="fill:#fff"/><path d="M20.09,6.85A1.15,1.15,0,0,0,18.94,8v.38a1.08,1.08,0,0,0,.2.64,1.9,1.9,0,0,0-1,1.65v.2a.57.57,0,0,0,.57.57h1.72a.19.19,0,0,0,.19-.19.18.18,0,0,0-.19-.19H18.75a.19.19,0,0,1-.19-.19v-.2a1.54,1.54,0,0,1,.85-1.37,1.14,1.14,0,0,0,1.83-.92V8A1.15,1.15,0,0,0,20.09,6.85Zm.76,1.53a.76.76,0,0,1-.76.76.77.77,0,0,1-.77-.76V8a.77.77,0,0,1,.77-.77.76.76,0,0,1,.76.77v.38Z" style="fill:#fff"/><path d="M22.58,10.1h-.77V9.34a.19.19,0,1,0-.38,0v.76h-.77a.2.2,0,0,0-.19.19.19.19,0,0,0,.19.19h.77v.77a.19.19,0,0,0,.38,0v-.77h.77a.19.19,0,0,0,.19-.19A.2.2,0,0,0,22.58,10.1Z" style="fill:#fff"/></svg>