<svg id="Layer_1" data-name="Layer 1" xmlns="http://www.w3.org/2000/svg" viewBox="0 0 28 28"><title>Masonary</title><g id="Layer_2" data-name="Layer 2"><g id="Layer_1-2" data-name="Layer 1-2"><path d="M9.43,16.4h-5a.57.57,0,0,1-.57-.57V6.51a.57.57,0,0,1,.57-.57h5a.57.57,0,0,1,.57.57v9.32A.57.57,0,0,1,9.43,16.4Zm-4.91-.69h4.8V6.62H4.52Z" style="fill:#fff"/><path d="M16.51,22.06h-5a.57.57,0,0,1-.57-.57V12.17a.57.57,0,0,1,.57-.57h5a.57.57,0,0,1,.57.57v9.32A.57.57,0,0,1,16.51,22.06Zm-4.91-.69h4.8V12.29H11.6Z" style="fill:#fff"/><path d="M9.43,22.06h-5a.57.57,0,0,1-.57-.57V17.75a.57.57,0,0,1,.57-.57h5a.57.57,0,0,1,.57.57v3.75A.57.57,0,0,1,9.43,22.06Zm-4.91-.69h4.8V17.86H4.52Z" style="fill:#fff"/><path d="M23.6,16.4h-5a.57.57,0,0,1-.57-.57V6.51a.57.57,0,0,1,.57-.57h5a.57.57,0,0,1,.57.57v9.32A.57.57,0,0,1,23.6,16.4Zm-4.91-.69h4.8V6.62h-4.8Z" style="fill:#fff"/><path d="M23.6,22.06h-5a.57.57,0,0,1-.57-.57V17.75a.57.57,0,0,1,.57-.57h5a.57.57,0,0,1,.57.57v3.75A.57.57,0,0,1,23.6,22.06Zm-4.91-.69h4.8V17.86h-4.8Z" style="fill:#fff"/><path d="M16.51,10.82h-5a.57.57,0,0,1-.57-.57V6.51a.57.57,0,0,1,.57-.57h5a.57.57,0,0,1,.57.57v3.75A.57.57,0,0,1,16.51,10.82Zm-4.91-.69h4.8V6.62H11.6Z" style="fill:#fff"/></g></g></svg>