<svg id="Layer_1" data-name="Layer 1" xmlns="http://www.w3.org/2000/svg" viewBox="0 0 28 28"><title>Rating-01-01</title><g id="Layer_2" data-name="Layer 2"><g id="Layer_1-2" data-name="Layer 1-2"><path d="M2.89,17.2l-.14,1.95a.49.49,0,0,0,.14.41h.28L5,18.73l2,.83h.27c.14,0,.14-.14.14-.27L7.19,17.2l1.39-1.53V15.4c0-.14-.14-.14-.27-.28L6.36,14.7,5.25,13c-.14-.14-.28-.14-.56-.14L4.56,13,3.44,14.7l-1.94.42c.14,0,0,.14,0,.28v.27ZM4,15.26c.14,0,.14,0,.28-.14l.83-1.39.83,1.39a.14.14,0,0,0,.14.14h0l1.53.41L6.5,16.92c0,.14-.14.14-.14.28l.14,1.53L5.11,18h0l-1.39.69.14-1.53c0-.14,0-.14-.14-.28L2.61,15.67Z" style="fill:#fff"/><path d="M22.75,13l-1.11,1.7-1.95.42a.29.29,0,0,0-.27.28v.27l1.39,1.53-.14,1.95c0,.14,0,.27.14.27h.27l1.81-.83,1.8.83h.42c.14,0,.14-.13.14-.27l-.14-1.95,1.25-1.53c.14,0,.14-.13.14-.27s-.14-.14-.28-.28l-1.94-.42-1-1.66c-.14-.28-.28-.28-.56,0Zm1.39,2.22,1.53.41-1.11,1.25c0,.14-.14.14-.14.28l.14,1.53L23.17,18h-.28l-1.53.69.14-1.53c0-.14,0-.14-.14-.28l-1.11-1.25,1.53-.41a.14.14,0,0,0,.14-.14l.83-1.39.83,1.39A1,1,0,0,0,24.14,15.22Z" style="fill:#fff"/><path d="M19.28,12.2c0-.14-.14-.14-.28-.28l-3.06-.69L14.28,8.59c-.14-.14-.28-.28-.42-.14l-.14.14-1.66,2.64L9,11.92a.3.3,0,0,0-.28.28c0,.14,0,.28.14.28l2.08,2.36-.27,3.06c0,.14,0,.27.14.27h.27L14,17.06l2.92,1.25h.27c.14-.14.14-.14.14-.27l-.27-3,2.08-2.36C19.28,12.34,19.28,12.34,19.28,12.2ZM16.5,14.56v.28l.14,2.64-2.5-1.11h-.28l-2.5,1.11.28-2.64c0-.14,0-.14-.14-.28L9.83,12.48l2.64-.56c.14,0,.14-.13.28-.13l1.39-2.37,1.39,2.37c0,.13.14.13.14.13l2.64.56Z" style="fill:#fff"/></g></g></svg>