<svg id="Layer_1" data-name="Layer 1" xmlns="http://www.w3.org/2000/svg" viewBox="0 0 28 28"><path d="M22.4,8.29l-4.72-4.7a1,1,0,0,0-.73-.3H8.81A1.48,1.48,0,0,0,7.36,4.74V21.18a1.48,1.48,0,0,0,1.45,1.44H21.26a1.47,1.47,0,0,0,1.44-1.44V9A1.2,1.2,0,0,0,22.4,8.29ZM17.73,5.4l2.84,2.85H17.93a.21.21,0,0,1-.2-.21Zm3.73,15.8a.26.26,0,0,1-.25.2H8.81a.2.2,0,0,1-.21-.2V4.74a.21.21,0,0,1,.21-.21h7.72V8A1.47,1.47,0,0,0,18,9.48h3.48Z" style="fill:#fff"/><path d="M19.17,23.45H7.57a1,1,0,0,1-1-1V6.8a.65.65,0,0,0-.62-.62.65.65,0,0,0-.62.62V22.44a2.29,2.29,0,0,0,2.27,2.27H19.22a.64.64,0,0,0,.61-.62A.66.66,0,0,0,19.17,23.45Z" style="fill:#fff"/><path d="M10.48,13.7h6.1a.62.62,0,0,0,.62-.62.62.62,0,0,0-.62-.62h-6.1a.62.62,0,0,0-.62.62A.62.62,0,0,0,10.48,13.7Z" style="fill:#fff"/><path d="M9.86,15.7a.62.62,0,0,0,.62.62h8.85A.62.62,0,0,0,20,15.7a.62.62,0,0,0-.62-.62H10.48A.62.62,0,0,0,9.86,15.7Z" style="fill:#fff"/><path d="M19.33,17.69H10.48a.62.62,0,0,0,0,1.24h8.85a.62.62,0,0,0,0-1.24Z" style="fill:#fff"/><path d="M15.16,7.19a2,2,0,0,1-.62.17A1.06,1.06,0,0,0,15,6.77a2.34,2.34,0,0,1-.68.26,1.1,1.1,0,0,0-.79-.34,1.08,1.08,0,0,0-1.09,1.08,1.07,1.07,0,0,0,0,.25,3.07,3.07,0,0,1-2.23-1.14,1.06,1.06,0,0,0-.15.55,1.07,1.07,0,0,0,.48.9,1,1,0,0,1-.49-.13h0A1.07,1.07,0,0,0,11,9.27a.92.92,0,0,1-.29,0l-.2,0a1.09,1.09,0,0,0,1,.75,2.18,2.18,0,0,1-1.34.47l-.26,0A3.07,3.07,0,0,0,14.62,7.9V7.76A2.44,2.44,0,0,0,15.16,7.19Z" style="fill:#fff"/></svg>