<svg id="Layer_1" data-name="Layer 1" xmlns="http://www.w3.org/2000/svg" viewBox="0 0 28 28"><title>Overlay Card-01-01</title><g id="Layer_2" data-name="Layer 2"><g id="Layer_1-2" data-name="Layer 1-2"><path d="M19.88,13.29a8.11,8.11,0,0,0-3.15-2A4.82,4.82,0,1,0,10,10a4.59,4.59,0,0,0,1.28,1.28,8.35,8.35,0,0,0-5.61,7.89H7a7,7,0,1,1,14.06,0H22.3A8.15,8.15,0,0,0,19.88,13.29ZM14,10.84A3.53,3.53,0,1,1,17.52,7.3h0A3.53,3.53,0,0,1,14,10.84Z" style="fill:#fff"/><path d="M22,21l-7.7-3.36a.74.74,0,0,0-.51,0L6.12,21a.65.65,0,0,0-.35.85h0a.62.62,0,0,0,.34.35l7.67,3.28a.75.75,0,0,0,.51,0L22,22.17a.66.66,0,0,0,.35-.86h0A.59.59,0,0,0,22,21Zm-8,3.18-6-2.6L14,19l6,2.56Z" style="fill:#fff"/></g></g></svg>