<svg width="103" height="133" viewBox="0 0 103 133" fill="none" xmlns="http://www.w3.org/2000/svg">
<path d="M76.1029 19.5987H0.550049V0H76.1029C81.5653 0 85.9695 4.43101 85.9695 9.85047C85.9012 15.2359 81.4971 19.5987 76.1029 19.5987Z" fill="white"/>
<path d="M76.1029 132.078H0.550049V112.446H76.1029C81.5653 112.446 85.9695 116.877 85.9695 122.296C85.9012 127.715 81.4971 132.078 76.1029 132.078Z" fill="white"/>
<path d="M54.5261 75.8381H0.550049V56.2053H54.5261C59.9885 56.2053 64.3927 60.6363 64.3927 66.0558C64.3585 71.4753 59.9544 75.8381 54.5261 75.8381Z" fill="white"/>
<path d="M62.6175 26.3477H24.4143V45.9804H62.6175C73.7131 46.0827 82.5896 55.1492 82.4872 66.2267C82.3848 77.1338 73.5424 85.9617 62.6175 86.064H24.4143V105.663H62.6175C84.5698 105.969 102.596 88.484 102.903 66.5676C103.21 44.6511 85.6964 26.6544 63.7441 26.3477C63.3685 26.3477 62.993 26.3477 62.6175 26.3477Z" fill="white"/>
</svg>
