<svg id="Layer_1" data-name="Layer 1" xmlns="http://www.w3.org/2000/svg" viewBox="0 0 28 28"><title>Image Scroll-01-01</title><g id="Layer_1-2" data-name="Layer 1-2"><g style="opacity:0.20000000298023224"><path d="M23.94,24.65H22.52a.47.47,0,0,1-.54-.41.47.47,0,0,1,.4-.54h1.56l.94.12A.91.91,0,0,1,23.94,24.65Zm-2.84,0H19.56a.48.48,0,0,1,0-.95H21.1a.48.48,0,0,1,0,.95Zm-2.84,0H16.72a.48.48,0,0,1,0-.95h1.42a.51.51,0,0,1,.47.47C18.61,24.41,18.49,24.65,18.26,24.65Zm-3,0h-1.5a.48.48,0,0,1,0-.95H15.3a.48.48,0,0,1,0,.95Zm-2.84,0h-1.5a.48.48,0,0,1,0-.95h1.42a.52.52,0,0,1,.48.47c.12.24-.12.48-.36.48Zm-3,0H8.09a.47.47,0,0,1-.54-.41A.47.47,0,0,1,8,23.7H9.51a.51.51,0,0,1,.47.47c.12.24-.12.48-.47.48Zm-2.84,0H5.13a.48.48,0,0,1,0-.95H6.55a.51.51,0,0,1,.47.47c.12.24-.12.48-.35.48Zm-3-.12c-.12,0-.24,0-.24-.12A1.22,1.22,0,0,1,3,23.58v-.95a.51.51,0,0,1,.47-.47.52.52,0,0,1,.48.47v.95a.45.45,0,0,1,.18.61.36.36,0,0,1-.07.1c0,.24-.11.24-.35.24Zm20.7-1.78a.5.5,0,0,1-.47-.47V20.86a.47.47,0,0,1,.94,0v1.42a.43.43,0,0,1-.39.47ZM3.59,21.69a.51.51,0,0,1-.47-.47V19.68a.51.51,0,0,1,.47-.48.51.51,0,0,1,.47.48V21.1C4.06,21.57,3.83,21.69,3.59,21.69Zm20.82-1.78a.5.5,0,0,1-.47-.47V17.9a.47.47,0,0,1,.94,0h0v1.42C24.88,19.68,24.76,19.91,24.41,19.91ZM3.59,18.85a.51.51,0,0,1-.47-.47V16.84a.5.5,0,0,1,.47-.47.5.5,0,0,1,.47.47v1.42A.54.54,0,0,1,3.59,18.85ZM24.41,17a.51.51,0,0,1-.47-.48V15a.47.47,0,0,1,.94,0h0v1.42c.12.35-.12.59-.47.59ZM3.59,16a.51.51,0,0,1-.47-.47V14a.5.5,0,0,1,.47-.47.5.5,0,0,1,.47.47h0v1.42a.54.54,0,0,1-.47.59Zm20.82-1.89a.51.51,0,0,1-.47-.47V12.11a.47.47,0,1,1,.94,0v1.42c0,.35-.12.59-.47.59ZM3.59,13.05a.5.5,0,0,1-.47-.47V11.16a.5.5,0,0,1,.47-.47.5.5,0,0,1,.47.47v1.42A.5.5,0,0,1,3.59,13.05Zm20.82-1.77a.51.51,0,0,1-.47-.47V9.27a.47.47,0,0,1,.94,0h0v1.42C25,11,24.76,11.16,24.41,11.28ZM3.59,10.22a.51.51,0,0,1-.47-.48V8.2a.51.51,0,0,1,.47-.47.51.51,0,0,1,.47.47V9.62A.53.53,0,0,1,3.59,10.22Zm20.82-1.9a.5.5,0,0,1-.47-.47V6.43a.47.47,0,0,1,.94,0h0V7.85a.43.43,0,0,1-.39.47ZM3.59,7.26a.51.51,0,0,1-.47-.48V5.37a.51.51,0,0,1,.47-.48.51.51,0,0,1,.47.48V6.9C4.06,7.14,3.83,7.26,3.59,7.26ZM24.41,5.48A.5.5,0,0,1,23.94,5V4.3h-.12a.52.52,0,0,1-.48-.47.55.55,0,0,1,.6-.48h.11a.94.94,0,0,1,.95.93v.61C24.88,5.25,24.76,5.48,24.41,5.48ZM3.71,4.42c-.24.12-.47-.12-.47-.36s0-.35.11-.35a1,1,0,0,1,.71-.36H5.13a.51.51,0,0,1,.47.48.51.51,0,0,1-.47.47H4.06A.41.41,0,0,1,3.71,4.42ZM22.52,4.3H21a.51.51,0,0,1-.47-.47A.51.51,0,0,1,21,3.35h1.4a.52.52,0,0,1,.47.48C22.87,4.06,22.75,4.3,22.52,4.3Zm-3,0H18a.51.51,0,0,1-.47-.47.54.54,0,0,1,.59-.48h1.42a.51.51,0,0,1,.47.48.51.51,0,0,1-.47.47Zm-2.84,0h-1.5a.51.51,0,0,1-.47-.47.52.52,0,0,1,.47-.48H16.6a.52.52,0,0,1,.48.48c0,.23-.12.47-.36.47Zm-3,0H12.34a.51.51,0,0,1-.47-.47.52.52,0,0,1,.47-.48h1.42a.52.52,0,0,1,.48.48.44.44,0,0,1-.41.47h-.15Zm-2.84,0H9.39a.52.52,0,0,1-.48-.47.52.52,0,0,1,.48-.48h1.53a.52.52,0,0,1,.48.48.52.52,0,0,1-.48.47ZM8,4.3H6.55a.51.51,0,0,1-.47-.47.51.51,0,0,1,.47-.48H8.09a.52.52,0,0,1,.47.48.51.51,0,0,1-.47.47Z" style="fill:#fff"/></g><path d="M9.74,17.31a.56.56,0,0,1,.53-.59h.06c.12,0,.36.12.48.12L14,20l3.19-3.19A.58.58,0,0,1,18,17l0,0a.75.75,0,0,1,0,.71l-3.67,3.66a.56.56,0,0,1-.79,0l0,0-3.65-3.7C9.74,17.67,9.74,17.43,9.74,17.31Z" style="fill:#fff"/><path d="M9.74,10.81c0-.12.12-.36.12-.48l3.67-3.66a.56.56,0,0,1,.79,0l0,0L18,10.33a.57.57,0,0,1-.08.8l0,0a.75.75,0,0,1-.71,0h0L14,8.09l-3.19,3.19a.57.57,0,0,1-.81,0l0,0C9.74,11.16,9.74,11,9.74,10.81Z" style="fill:#fff"/><path d="M14,12.94h0a.5.5,0,0,1,.47.47v3.9a.5.5,0,0,1-.47.47h0a.5.5,0,0,1-.47-.47v-3.9A.5.5,0,0,1,14,12.94Z" style="fill:#fff"/><path d="M14,10.22h0a.5.5,0,0,1,.47.47v1.18a.5.5,0,0,1-.47.47h0a.5.5,0,0,1-.47-.47V10.69A.5.5,0,0,1,14,10.22Z" style="fill:#fff"/></g></svg>