<svg id="Layer_1" data-name="Layer 1" xmlns="http://www.w3.org/2000/svg" viewBox="0 0 28 28"><title>Coverflow-01-01</title><path d="M13.44,13.44a1.28,1.28,0,0,0,1.33-1.23,1.28,1.28,0,0,0-2.56-.11h0a1.15,1.15,0,0,0,.94,1.33A1.41,1.41,0,0,0,13.44,13.44Zm0-1.78a.56.56,0,1,1,.15,1.11h-.15a.6.6,0,0,1-.56-.56h0a.53.53,0,0,1,.51-.55Z" style="fill:#fff"/><path d="M19.8,8.42H8.2a.51.51,0,0,0-.56.45h0V19.13a.47.47,0,0,0,.44.45H19.8a.48.48,0,0,0,.45-.45h0V8.87A.48.48,0,0,0,19.8,8.42Zm-.22.67v6.14l-2.34-2.46a.52.52,0,0,0-.56,0h0l-3.24,3.46L11.32,14a.52.52,0,0,0-.56,0h0L8.42,16.46V9.09ZM8.42,18.91V17.57L11,14.89l2.12,2.23c.11.12.33.12.56,0h0l3.23-3.45,2.68,2.67v2.57Z" style="fill:#fff"/><polygon points="25.72 9.2 25.72 19.02 26.5 19.36 26.5 8.75 25.72 9.2" style="fill:#fff"/><polygon points="24.27 19.02 25.05 19.36 25.05 8.75 24.27 9.31 24.27 19.02" style="fill:#fff"/><polygon points="21.14 18.35 23.71 19.36 23.71 8.75 21.14 10.54 21.14 18.35" style="fill:#fff"/><polygon points="1.5 19.36 2.28 19.02 2.28 9.2 1.5 8.75 1.5 19.36" style="fill:#fff"/><polygon points="2.95 19.36 3.73 19.02 3.73 9.31 2.95 8.75 2.95 19.36" style="fill:#fff"/><polygon points="4.29 19.36 6.97 18.35 6.97 10.54 4.29 8.75 4.29 19.36" style="fill:#fff"/></svg>