<svg id="Layer_1" data-name="Layer 1" xmlns="http://www.w3.org/2000/svg" viewBox="0 0 28 28"><path d="M15.67,8.48a8.39,8.39,0,0,1,7.1,12.84l1.28,3c.21.53-.06,1-.75.74l-3-1.22A8.37,8.37,0,1,1,15.67,8.48ZM12.43,14.1H19v1.06H12.43Zm0,4.46h4.3v1.11h-4.3Zm0-2.23H19v1.12H12.43Zm3.24-6.84a7.38,7.38,0,0,1,5.94,11.72l1,2.44-2.44-1a7.34,7.34,0,1,1-4.5-13.15Z" style="fill:#fff;fill-rule:evenodd"/><path d="M7.6,10.21a3.72,3.72,0,1,1,3.71-3.72A3.73,3.73,0,0,1,7.6,10.21Zm0-6.59a2.88,2.88,0,1,0,2.87,2.87A2.88,2.88,0,0,0,7.6,3.62Z" style="fill:#fff"/><path d="M8,5.39a.49.49,0,0,0-.12.38h.55v.59H7.83V8.5h-.7V6.36H6.78V5.77h.35V5.71A1,1,0,0,1,7.41,5a1.14,1.14,0,0,1,.82-.26h.15v.6A.61.61,0,0,0,8,5.39Z" style="fill:#fff"/></svg>