<svg id="Layer_1" data-name="Layer 1" xmlns="http://www.w3.org/2000/svg" viewBox="0 0 28 28"><title>Color Motion-01-01</title><path d="M7.76,4.34h0A.62.62,0,0,1,8.38,5a.49.49,0,0,1,0,.12.62.62,0,0,1-.62.62H7.63a.57.57,0,0,1-.49-.61.7.7,0,0,1,.62-.74h0" style="fill:#fff"/><path d="M6.41,15.34a.7.7,0,0,1-.73-.67v-.06a.78.78,0,0,1,.73-.73h0a.78.78,0,0,1,.73.73.7.7,0,0,1-.67.73H6.41" style="fill:#fff"/><path d="M7.14,17.42a.73.73,0,1,1-.73-.73h0c.37.12.73.37.73.73" style="fill:#fff"/><path d="M6.41,12.66A.71.71,0,0,1,5.68,12v-.05a.79.79,0,0,1,.73-.73h0a.73.73,0,0,1,.65.82.74.74,0,0,1-.65.65h0" style="fill:#fff"/><path d="M6.41,9.84a.7.7,0,0,1-.73-.67V9.11a.78.78,0,0,1,.73-.73h0a.78.78,0,0,1,.73.73.7.7,0,0,1-.67.73H6.41" style="fill:#fff"/><path d="M6.41,7.16a.71.71,0,0,1-.73-.69v0a.79.79,0,0,1,.73-.73h0a.79.79,0,0,1,.73.73.79.79,0,0,1-.73.74" style="fill:#fff"/><path d="M5.8,7.77a.7.7,0,0,1-.67.73H5.07a.69.69,0,0,1-.74-.61A.71.71,0,0,1,5,7.16h.05a.77.77,0,0,1,.73.61h0" style="fill:#fff"/><path d="M5.07,9.84h0a.62.62,0,0,1,.62.62.49.49,0,0,1,0,.12c-.12.36-.25.73-.61.61a.68.68,0,0,1-.61-.73c-.13-.25.24-.62.61-.62h0" style="fill:#fff"/><path d="M5.07,12.66h0a.6.6,0,0,1,.62.6.57.57,0,0,1,0,.13c-.12.37-.25.61-.61.61a.68.68,0,0,1-.61-.73c-.13-.37.24-.61.61-.61h0" style="fill:#fff"/><path d="M5.07,15.34h0a.62.62,0,0,1,.62.62.49.49,0,0,1,0,.12c-.12.36-.25.61-.61.61A.68.68,0,0,1,4.46,16c-.13-.25.24-.62.61-.62h0" style="fill:#fff"/><path d="M5.07,18.16h0a.68.68,0,0,1,.61.74.67.67,0,0,1-1.34-.14.66.66,0,0,1,.73-.6h0" style="fill:#fff"/><path d="M5.07,20.84h0a.67.67,0,0,1,.55.79.66.66,0,0,1-.68.56.69.69,0,0,1-.61-.73.8.8,0,0,1,.74-.62h0" style="fill:#fff"/><path d="M5.8,20.23a.79.79,0,0,1,.73-.73h0c.37,0,.74.37.61.73s-.36.74-.73.61a.57.57,0,0,1-.61-.53v-.08" style="fill:#fff"/><path d="M7.76,20.84h0a.67.67,0,0,1,.55.79.66.66,0,0,1-.68.56c-.36,0-.61-.37-.73-.73.24-.25.49-.62.86-.62h0" style="fill:#fff"/><path d="M7.76,19.5A.7.7,0,0,1,7,18.86v-.09A.8.8,0,0,1,7.76,18h0a.73.73,0,0,1,.65.82.74.74,0,0,1-.65.65" style="fill:#fff"/><path d="M7.76,16.81A.7.7,0,0,1,7,16.17v-.09a.8.8,0,0,1,.74-.74h0a.73.73,0,0,1,.65.82.74.74,0,0,1-.65.65" style="fill:#fff"/><path d="M7.76,14A.7.7,0,0,1,7,13.36v-.09a.8.8,0,0,1,.74-.74h0a.73.73,0,0,1,.65.82.74.74,0,0,1-.65.65h0" style="fill:#fff"/><path d="M7.76,11.31A.7.7,0,0,1,7,10.67v-.09a.8.8,0,0,1,.74-.74h0a.79.79,0,0,1,.73.74c0,.36-.37.61-.73.73" style="fill:#fff"/><path d="M7.76,8.5A.7.7,0,0,1,7,7.86V7.77A.8.8,0,0,1,7.76,7h0a.79.79,0,0,1,.73.74.79.79,0,0,1-.73.73h0" style="fill:#fff"/><path d="M6.41,3h0a.6.6,0,0,1,.6.62.41.41,0,0,1,0,.11c0,.37-.36.74-.73.61a.68.68,0,0,1-.61-.73A.79.79,0,0,1,6.41,3h0" style="fill:#fff"/><path d="M5.07,4.34h0A.62.62,0,0,1,5.69,5a.49.49,0,0,1,0,.12c0,.36-.25.73-.61.61a.69.69,0,0,1-.74-.61.8.8,0,0,1,.74-.74h0" style="fill:#fff"/><path d="M3.72,3h0c.37,0,.74.37.61.73s-.36.74-.73.61A.57.57,0,0,1,3,3.8V3.73H3A.78.78,0,0,1,3.72,3h0" style="fill:#fff"/><path d="M3.72,5.81h0c.37,0,.74.37.61.73a.61.61,0,0,1-.59.63H3.6A.69.69,0,0,1,3,6.42H3a.69.69,0,0,1,.73-.61h0" style="fill:#fff"/><path d="M3.72,8.5h0c.37,0,.74.37.61.73S4,10,3.6,9.84A.68.68,0,0,1,3,9.11a.8.8,0,0,1,.73-.61h0" style="fill:#fff"/><path d="M3.72,11.31h0c.37,0,.74.37.61.73s-.36.74-.73.62a.69.69,0,0,1-.6-.74.62.62,0,0,1,.62-.62h.11" style="fill:#fff"/><path d="M3.72,14h0c.37,0,.74.37.61.73s-.36.74-.73.61a.68.68,0,0,1-.6-.73A.8.8,0,0,1,3.72,14h0" style="fill:#fff"/><path d="M3.72,16.81h0c.37,0,.74.37.61.73a.61.61,0,0,1-.59.63H3.6a.69.69,0,0,1-.6-.74.62.62,0,0,1,.62-.62h.11" style="fill:#fff"/><path d="M3.72,19.5h0c.37,0,.74.37.61.73S4,21,3.6,20.84a.68.68,0,0,1-.6-.73.8.8,0,0,1,.73-.61h0" style="fill:#fff"/><path d="M3.72,23.66A.71.71,0,0,1,3,23v0H3a.79.79,0,0,1,.73-.73h0a.79.79,0,0,1,.74.73c-.13.37-.37.74-.74.74" style="fill:#fff"/><path d="M5.07,25a.7.7,0,0,1-.74-.66v-.07a.8.8,0,0,1,.74-.74h0a.73.73,0,0,1,.65.82.74.74,0,0,1-.65.65" style="fill:#fff"/><path d="M6.41,23.66A.71.71,0,0,1,5.68,23v0a.79.79,0,0,1,.73-.73h0a.73.73,0,0,1,.65.82.74.74,0,0,1-.65.65h0" style="fill:#fff"/><path d="M7.76,25A.7.7,0,0,1,7,24.36v-.09a.8.8,0,0,1,.74-.74h0a.73.73,0,0,1,.65.82.74.74,0,0,1-.65.65" style="fill:#fff"/><path d="M9.22,23.66A.71.71,0,0,1,8.49,23v0a.79.79,0,0,1,.73-.73h0a.79.79,0,0,1,.74.73c-.13.37-.37.74-.74.74" style="fill:#fff"/><path d="M9.22,20.84a.7.7,0,0,1-.73-.67v-.06a.79.79,0,0,1,.73-.73h0a.79.79,0,0,1,.74.73c-.13.49-.37.73-.74.73" style="fill:#fff"/><path d="M9.22,18.16a.71.71,0,0,1-.73-.69v0a.79.79,0,0,1,.73-.73h0a.79.79,0,0,1,.74.73c-.13.37-.37.74-.74.74" style="fill:#fff"/><path d="M9.22,15.34a.7.7,0,0,1-.73-.67v-.06a.79.79,0,0,1,.73-.73h0a.79.79,0,0,1,.74.73c-.13.49-.37.73-.74.73h0" style="fill:#fff"/><path d="M9.22,12.66A.71.71,0,0,1,8.49,12v-.05a.79.79,0,0,1,.73-.73h0a.79.79,0,0,1,.74.73c-.13.37-.37.74-.74.74h0" style="fill:#fff"/><path d="M9.22,9.84a.7.7,0,0,1-.73-.67V9.11a.79.79,0,0,1,.73-.73h0a.79.79,0,0,1,.74.73c-.13.49-.37.73-.74.73h0" style="fill:#fff"/><path d="M9.22,7.16a.71.71,0,0,1-.73-.69v0a.79.79,0,0,1,.73-.73h0a.79.79,0,0,1,.74.73c-.13.37-.37.74-.74.74h0" style="fill:#fff"/><path d="M9.22,4.34a.7.7,0,0,1-.73-.67V3.61A.65.65,0,0,1,9.1,3h0a.79.79,0,0,1,.73.73.65.65,0,0,1-.61.61h0" style="fill:#fff"/><path d="M11.91,22.31a.7.7,0,0,1-.73-.67v-.06a.79.79,0,0,1,.73-.74h0a.73.73,0,0,1,.65.82.74.74,0,0,1-.65.65h0" style="fill:#fff"/><path d="M11.91,16.81a.7.7,0,0,1-.73-.67v-.06a.79.79,0,0,1,.73-.74h0a.73.73,0,0,1,.65.82.74.74,0,0,1-.65.65h0" style="fill:#fff"/><path d="M11.91,11.31a.7.7,0,0,1-.73-.67v-.06a.79.79,0,0,1,.73-.74h0a.79.79,0,0,1,.73.74c0,.36-.36.61-.73.73" style="fill:#fff"/><path d="M11.91,5.81a.7.7,0,0,1-.73-.67V5.08a.79.79,0,0,1,.73-.74h0a.79.79,0,0,1,.73.74c0,.36-.36.61-.73.73" style="fill:#fff"/><path d="M14.72,25a.7.7,0,0,1-.73-.67v-.06a.79.79,0,0,1,.73-.74h0a.8.8,0,0,1,.74.74c-.13.36-.37.73-.74.73" style="fill:#fff"/><path d="M14.72,20.84a.7.7,0,0,1-.73-.67v-.06a.79.79,0,0,1,.73-.73h0a.79.79,0,0,1,.74.73c-.13.49-.37.73-.74.73" style="fill:#fff"/><path d="M14.72,16.81a.7.7,0,0,1-.73-.67v-.06a.79.79,0,0,1,.73-.74h0a.74.74,0,1,1,.17,1.47.49.49,0,0,1-.17,0" style="fill:#fff"/><path d="M14.72,12.66A.71.71,0,0,1,14,12v-.05a.79.79,0,0,1,.73-.73h0a.79.79,0,0,1,.74.73c-.13.37-.37.74-.74.74h0" style="fill:#fff"/><path d="M14.72,8.5A.7.7,0,0,1,14,7.82V7.77h0A.8.8,0,0,1,14.72,7h0a.8.8,0,0,1,.74.74c-.13.36-.37.73-.74.73h0" style="fill:#fff"/><path d="M14.72,4.34A.7.7,0,0,1,14,3.66V3.61h0A.8.8,0,0,1,14.72,3h0a.79.79,0,0,1,.74.73.78.78,0,0,1-.74.61h0" style="fill:#fff"/><path d="M17.41,23.66a.71.71,0,0,1-.73-.69v0a.79.79,0,0,1,.73-.73h0a.73.73,0,0,1,.65.82.74.74,0,0,1-.65.65h0" style="fill:#fff"/><path d="M17.41,19.5a.7.7,0,0,1-.73-.67v-.06a.79.79,0,0,1,.73-.74h0a.73.73,0,0,1,.65.82.74.74,0,0,1-.65.65h0" style="fill:#fff"/><path d="M17.41,15.34a.7.7,0,0,1-.73-.67v-.06a.78.78,0,0,1,.73-.73h0a.78.78,0,0,1,.73.73.7.7,0,0,1-.67.73h-.06" style="fill:#fff"/><path d="M17.41,11.31a.7.7,0,0,1-.73-.67v-.06a.79.79,0,0,1,.73-.74h0a.79.79,0,0,1,.73.74c0,.36-.36.61-.73.73" style="fill:#fff"/><path d="M17.41,7.16a.71.71,0,0,1-.73-.69v0a.79.79,0,0,1,.73-.73h0a.79.79,0,0,1,.73.73.79.79,0,0,1-.73.74h0" style="fill:#fff"/><path d="M20.22,22.31a.7.7,0,0,1-.73-.67v-.06a.79.79,0,0,1,.73-.74h0a.8.8,0,0,1,.74.74c-.13.36-.37.73-.74.73" style="fill:#fff"/><path d="M20.22,18.16a.71.71,0,0,1-.73-.69v0a.79.79,0,0,1,.73-.73h0a.79.79,0,0,1,.74.73c-.13.37-.37.74-.74.74" style="fill:#fff"/><path d="M20.22,14a.7.7,0,0,1-.73-.67v-.06a.79.79,0,0,1,.73-.74h0a.69.69,0,0,1,.61.74.8.8,0,0,1-.61.73h0" style="fill:#fff"/><path d="M20.22,9.84a.7.7,0,0,1-.73-.67V9.11a.76.76,0,0,1,.61-.73h0a.78.78,0,0,1,.73.73.68.68,0,0,1-.61.73" style="fill:#fff"/><path d="M20.22,5.81a.7.7,0,0,1-.73-.67V5.08a.78.78,0,0,1,.61-.74h0a.79.79,0,0,1,.73.74c0,.36-.36.61-.61.73" style="fill:#fff"/><path d="M22.91,22.31a.7.7,0,0,1-.73-.67v-.06a.79.79,0,0,1,.73-.74h0a.73.73,0,0,1,.65.82.74.74,0,0,1-.65.65" style="fill:#fff"/><path d="M24.38,18.16a.71.71,0,0,1-.74-.68v-.06a.79.79,0,0,1,.74-.73h0a.79.79,0,0,1,.73.73c-.12.37-.49.74-.73.74" style="fill:#fff"/><path d="M24.38,12.66a.71.71,0,0,1-.74-.68v-.06a.79.79,0,0,1,.74-.73h0a.79.79,0,0,1,.73.73c-.12.37-.49.74-.73.74h0" style="fill:#fff"/><path d="M24.38,7.16a.71.71,0,0,1-.74-.68V6.42a.79.79,0,0,1,.74-.73h0a.79.79,0,0,1,.73.73c-.12.37-.49.74-.73.74h0" style="fill:#fff"/></svg>