<svg id="Layer_1" data-name="Layer 1" xmlns="http://www.w3.org/2000/svg" viewBox="0 0 28 28"><title>3D Cube Slider-01-01</title><g id="Layer_2" data-name="Layer 2"><g id="Layer_1-2" data-name="Layer 1-2"><path d="M23.06,16.93a.42.42,0,0,1-.42-.42h0a.42.42,0,0,1,.12-.3L25,14l-2.23-2.22a.41.41,0,0,1,.55-.6l2.52,2.52a.43.43,0,0,1,0,.6l-2.52,2.52A.47.47,0,0,1,23.06,16.93Z" style="fill:#fff"/><path d="M4.94,11.07a.43.43,0,0,1,.43.41.44.44,0,0,1-.13.31L3,14l2.22,2.23a.41.41,0,0,1,0,.58h0a.44.44,0,0,1-.55,0L2.12,14.31a.42.42,0,0,1,0-.59l2.52-2.53A.47.47,0,0,1,4.94,11.07Z" style="fill:#fff"/><path d="M7.72,17.8l6.14,3.13h.28l6.14-3.13a.33.33,0,0,0,.17-.28V16.27a.32.32,0,0,0-.37-.26.32.32,0,0,0-.26.26v1.06l-5.51,2.81V13.79L19.82,11v4a.32.32,0,0,0,.37.26.32.32,0,0,0,.26-.26V10.48h0V10.3h-.06L14.14,7.07a.34.34,0,0,0-.28,0L13,7.52a.31.31,0,1,0,.28.56h0L14,7.7l5.45,2.78-.34.17L14,13.25l-5.11-2.6-.34-.17,3.59-1.83a.32.32,0,0,0,.15-.42.31.31,0,0,0-.41-.14h0L7.72,10.2H7.66v.08h0v2.38a.32.32,0,0,0,.37.26.32.32,0,0,0,.26-.26V11l5.51,2.8v6.35L8.18,17.33V14.11a.32.32,0,0,0-.37-.26.32.32,0,0,0-.26.26v3.41A.33.33,0,0,0,7.72,17.8Z" style="fill:#fff"/></g></g></svg>