<svg id="Layer_1" data-name="Layer 1" xmlns="http://www.w3.org/2000/svg" viewBox="0 0 28 28"><path d="M9.81,12.35a.67.67,0,0,0-.17.52h.75v.8H9.64v2.91H8.7V13.67H8.22v-.8H8.7v-.08a1.31,1.31,0,0,1,.38-1,1.55,1.55,0,0,1,1.12-.36h.19v.81A.77.77,0,0,0,9.81,12.35Z" style="fill:#fff"/><path d="M20.67,10.37A3.4,3.4,0,1,0,17.28,7c0,.14,0,.28,0,.42L13,9.86A5.41,5.41,0,0,0,9.44,8.5a5.5,5.5,0,1,0,0,11A5.41,5.41,0,0,0,13,18.14L17.3,20.6c0,.14,0,.28,0,.42a3.39,3.39,0,1,0,.77-2.15l-3.82-2.2a5.38,5.38,0,0,0,0-5.34l3.82-2.2A3.43,3.43,0,0,0,20.67,10.37Zm0-4.91A1.52,1.52,0,1,1,19.15,7,1.51,1.51,0,0,1,20.67,5.46Zm0,14A1.52,1.52,0,1,1,19.15,21,1.52,1.52,0,0,1,20.67,19.5ZM9.44,17.63A3.63,3.63,0,1,1,13.06,14,3.65,3.65,0,0,1,9.44,17.63Z" style="fill:#fff"/></svg>