<svg id="Layer_1" data-name="Layer 1" xmlns="http://www.w3.org/2000/svg" viewBox="0 0 28 28"><rect x="13.07" y="4.74" width="1.73" height="18.53" style="fill:#fff"/><polygon points="3.82 6.63 3.82 8.47 3.82 19.48 3.82 21.33 5.55 21.33 10.25 21.33 10.25 19.48 5.55 19.48 5.55 8.47 10.25 8.47 10.25 6.63 5.55 6.63 3.82 6.63" style="fill:#fff"/><rect x="22.45" y="14.47" width="1.73" height="2.01" style="fill:#fff"/><rect x="22.45" y="11.47" width="1.73" height="2.03" style="fill:#fff"/><polygon points="22.45 6.63 20.62 6.63 20.62 8.47 22.45 8.47 22.45 10.51 24.18 10.51 24.18 8.47 24.18 6.63 22.45 6.63" style="fill:#fff"/><rect x="17.81" y="19.48" width="1.68" height="1.87" style="fill:#fff"/><polygon points="22.45 19.48 20.46 19.48 20.46 21.33 22.45 21.33 24.18 21.33 24.18 19.48 24.18 17.45 22.45 17.45 22.45 19.48" style="fill:#fff"/><rect x="17.81" y="6.63" width="1.85" height="1.87" style="fill:#fff"/></svg>