<svg id="Layer_1" data-name="Layer 1" xmlns="http://www.w3.org/2000/svg" viewBox="0 0 28 28"><title>Step Flow</title><g id="Layer_2" data-name="Layer 2"><g id="Layer_1-2" data-name="Layer 1-2"><circle cx="5.69" cy="17" r="2.53" style="fill:#fff"/><circle cx="13.95" cy="17" r="2.53" style="fill:#fff"/><circle cx="22.31" cy="17" r="2.53" style="fill:#fff"/><path d="M13.06,17.44H6a.44.44,0,1,1,0-.88h7a.44.44,0,0,1,0,.88Z" style="fill:#fff"/><path d="M21.87,17.44h-7a.44.44,0,1,1,0-.88h7a.44.44,0,0,1,0,.88Z" style="fill:#fff"/><path d="M11.71,10.7v1.83a.28.28,0,0,0,.28.28h1.12a.28.28,0,0,0,.28-.28V11.2Z" style="fill:#fff"/><rect x="16.73" y="5" width="1.39" height="7.25" rx="0.28" ry="0.28" style="fill:#fff"/><path d="M10.6,7.79H10a.28.28,0,0,0-.28.28V9.18a.28.28,0,0,0,.28.28h.56Z" style="fill:#fff"/><path d="M16.17,5.8,11.35,7.24a.28.28,0,0,0-.2.27V9.74a.28.28,0,0,0,.2.27l4.82,1.45Z" style="fill:#fff"/><path d="M5.17,23v-.05l.33-.11v-1.6L5,21.43v-.15l.84-.49h.3v2l.29.11V23Z" style="fill:#fff"/><path d="M13.13,23v-.15l.42-.45.27-.32a1.33,1.33,0,0,0,.16-.25.84.84,0,0,0,.07-.24,2.4,2.4,0,0,0,0-.3.61.61,0,0,0,0-.16A.25.25,0,0,0,14,21a.22.22,0,0,0-.15,0,.25.25,0,0,0-.22.1.49.49,0,0,0-.07.29v.16l0,0h-.27a.17.17,0,0,1-.1,0s0-.05,0-.12a.38.38,0,0,1,.06-.2.86.86,0,0,1,.22-.22,1.13,1.13,0,0,1,.26-.15,1,1,0,0,1,.34,0,.89.89,0,0,1,.38.08.62.62,0,0,1,.26.21.51.51,0,0,1,.09.3.72.72,0,0,1,0,.18.61.61,0,0,1-.09.18,1.3,1.3,0,0,1-.18.21l-.31.27-.48.35h.91l.21-.33h.05l0,.77Z" style="fill:#fff"/><path d="M22.25,23A1.26,1.26,0,0,1,22,23a1,1,0,0,1-.28-.11.71.71,0,0,1-.16-.13.27.27,0,0,1-.07-.18q0-.09,0-.12a.17.17,0,0,1,.1,0h.26l0,0v.12a.24.24,0,0,0,.09.21.36.36,0,0,0,.21.06.28.28,0,0,0,.25-.12.56.56,0,0,0,.08-.31A.5.5,0,0,0,22.4,22a.51.51,0,0,0-.38-.12h-.16v-.16h.21a.27.27,0,0,0,.19-.07.4.4,0,0,0,.11-.18.75.75,0,0,0,0-.23q0-.36-.23-.36A.24.24,0,0,0,22,21a.31.31,0,0,0-.07.22v.16l0,0h-.27a.17.17,0,0,1-.1,0s0-.05,0-.12a.29.29,0,0,1,.06-.18A.57.57,0,0,1,21.7,21l.2-.11.19-.07a1.25,1.25,0,0,1,.61,0A.6.6,0,0,1,23,21a.42.42,0,0,1,.1.29.36.36,0,0,1-.09.25.64.64,0,0,1-.24.16,1.45,1.45,0,0,1-.32.09,1.24,1.24,0,0,1,.56.17.45.45,0,0,1,.21.41.5.5,0,0,1-.13.35.85.85,0,0,1-.34.22A1.26,1.26,0,0,1,22.25,23Z" style="fill:#fff"/></g></g></svg>