<svg id="Layer_1" data-name="Layer 1" xmlns="http://www.w3.org/2000/svg" viewBox="0 0 28 28"><title>Gallery Slider-01-01</title><path d="M13.14,10.71A1.71,1.71,0,1,0,11.43,9h0a1.67,1.67,0,0,0,1.63,1.71Zm0-2.44a.79.79,0,0,1,.74.73.73.73,0,0,1-.82.65A.74.74,0,0,1,12.41,9h0A.79.79,0,0,1,13.14,8.27Z" style="fill:#fff"/><path d="M21.94,4h-16a.58.58,0,0,0-.61.55V18.17a.58.58,0,0,0,.55.61H21.94a.59.59,0,0,0,.62-.56v0h0V4.72c.12-.36-.25-.73-.62-.73Zm-.36,1.1v8.07L18.4,10a.45.45,0,0,0-.63-.1.47.47,0,0,0-.1.1l-4.53,4.5-2.81-2.93a.45.45,0,0,0-.63-.1l-.1.1h0L6.3,14.74V5.09ZM6.3,17.92V16.21l3.54-3.54,2.94,2.93a.46.46,0,0,0,.64.09.38.38,0,0,0,.09-.09h0L18,11.08l3.55,3.54v3.3Z" style="fill:#fff"/><path d="M24.39,5.94h0a.58.58,0,0,1,.61.55v10a.58.58,0,0,1-.55.61h-.06a.58.58,0,0,1-.61-.55v-10a.58.58,0,0,1,.54-.62Z" style="fill:#fff"/><path d="M3.61,5.94h0a.58.58,0,0,1,.61.55v10a.58.58,0,0,1-.55.61H3.61A.65.65,0,0,1,3,16.46V6.56a.58.58,0,0,1,.54-.62Z" style="fill:#fff"/><path d="M14,23.91a1.71,1.71,0,1,1,1.71-1.71h0a1.67,1.67,0,0,1-1.63,1.71Zm0-2.81a1.1,1.1,0,1,0,1.1,1.1A1.1,1.1,0,0,0,14,21.1Z" style="fill:#fff"/><g style="opacity:0.30000001192092896"><path d="M18.64,23.54A1.34,1.34,0,1,1,20,22.2h0A1.36,1.36,0,0,1,18.64,23.54Zm0-2.07a.73.73,0,1,0,.74.73C19.38,21.83,19.13,21.59,18.64,21.47Z" style="fill:#fff"/></g><g style="opacity:0.30000001192092896"><path d="M9.23,23.54a1.34,1.34,0,1,1,1.35-1.34h0A1.36,1.36,0,0,1,9.23,23.54Zm0-2.07a.73.73,0,0,0,0,1.46A.78.78,0,0,0,10,22.2C10,21.83,9.6,21.59,9.23,21.47Z" style="fill:#fff"/></g></svg>