<svg id="Layer_1" data-name="Layer 1" xmlns="http://www.w3.org/2000/svg" viewBox="0 0 28 28"><title>Promo</title><path d="M20.85,9.35,14.19,5.5a.37.37,0,0,0-.37,0L11.22,7a.37.37,0,0,0,.37.64L14,6.25l6.3,3.63v3.49a.37.37,0,0,0,.74,0V9.67A.37.37,0,0,0,20.85,9.35Z" style="fill:#fff"/><path d="M20.67,14.48a.37.37,0,0,0-.37.37V18.2L14,21.83,7.7,18.2V9.88l2.41-1.39a.37.37,0,0,0-.37-.64L7.15,9.35A.37.37,0,0,0,7,9.67v8.74a.37.37,0,0,0,.19.32l6.67,3.85a.37.37,0,0,0,.37,0l6.67-3.85a.37.37,0,0,0,.19-.32V14.85A.37.37,0,0,0,20.67,14.48Z" style="fill:#fff"/><path d="M24.69,12.08a.37.37,0,0,0-.32-.19H22.15a.37.37,0,1,0,0,.74h1.57l-.77,1.29a.37.37,0,0,0,0,.38l.77,1.29H22.15a.37.37,0,0,0,0,.74h2.22a.37.37,0,0,0,.32-.56l-1-1.66,1-1.66A.37.37,0,0,0,24.69,12.08Z" style="fill:#fff"/><path d="M6.22,12.26a.37.37,0,0,0-.37-.37H3.63a.37.37,0,0,0-.32.56l1,1.66-1,1.66a.37.37,0,0,0,.32.56H5.85a.37.37,0,0,0,0-.74H4.29l.77-1.29a.37.37,0,0,0,0-.38l-.77-1.29H5.85A.37.37,0,0,0,6.22,12.26Z" style="fill:#fff"/><path d="M11.28,16.83a.37.37,0,0,0,.52,0l4.92-4.92a.37.37,0,1,0-.52-.52l-4.92,4.92A.37.37,0,0,0,11.28,16.83Z" style="fill:#fff"/><path d="M12.36,13.25a1.19,1.19,0,1,0-1.19-1.19A1.19,1.19,0,0,0,12.36,13.25Zm0-1.64a.45.45,0,1,1-.45.45A.45.45,0,0,1,12.36,11.61Z" style="fill:#fff"/><path d="M15.64,15a1.19,1.19,0,1,0,1.19,1.19A1.19,1.19,0,0,0,15.64,15Zm0,1.64a.45.45,0,1,1,.45-.45A.45.45,0,0,1,15.64,16.61Z" style="fill:#fff"/><path d="M8.08,8a.37.37,0,0,0,.19-.05L12,5.69a.37.37,0,1,0-.38-.64L7.88,7.27A.37.37,0,0,0,8.08,8Z" style="fill:#fff"/><path d="M19.55,15.59v-3a.37.37,0,1,0-.74,0v3a.37.37,0,1,0,.74,0Z" style="fill:#fff"/><path d="M21,22.26a.74.74,0,1,1-.74-.74A.74.74,0,0,1,21,22.26Z" style="fill:#fff"/></svg>