<svg id="Layer_1" data-name="Layer 1" xmlns="http://www.w3.org/2000/svg" viewBox="0 0 28 28"><path d="M21.37,6.61A8.74,8.74,0,0,1,19,7.25,4,4,0,0,0,20.82,5a8.4,8.4,0,0,1-2.57,1,4.05,4.05,0,0,0-7,2.77,3.93,3.93,0,0,0,.1.92A11.44,11.44,0,0,1,3,5.44a4.09,4.09,0,0,0-.56,2.05,4,4,0,0,0,1.8,3.37,3.94,3.94,0,0,1-1.83-.5v0a4.07,4.07,0,0,0,3.25,4,4.07,4.07,0,0,1-1.07.14,3.84,3.84,0,0,1-.76-.07A4.09,4.09,0,0,0,7.6,17.27a8.14,8.14,0,0,1-5,1.73,7.77,7.77,0,0,1-1-.06,11.37,11.37,0,0,0,6.22,1.82A11.45,11.45,0,0,0,19.36,9.23c0-.18,0-.35,0-.52A8.11,8.11,0,0,0,21.37,6.61Z" style="fill:#fff"/><path d="M21.9,23.29a4.49,4.49,0,1,1,4.49-4.49A4.49,4.49,0,0,1,21.9,23.29Zm0-7.69a3.21,3.21,0,1,0,3.21,3.2A3.21,3.21,0,0,0,21.9,15.6Z" style="fill:#fff"/><path d="M21.54,19.26h-1V18.5h1v-1h.76v1h1.05v.76H22.3v1h-.76Z" style="fill:#fff"/></svg>