<svg id="Layer_1" data-name="Layer 1" xmlns="http://www.w3.org/2000/svg" viewBox="0 0 28 28"><title>Single Button-01</title><path d="M20.11,9.6a4.4,4.4,0,1,1,0,8.8H7.89a4.4,4.4,0,0,1,0-8.8H20.11m0-.49H7.89a4.89,4.89,0,0,0,0,9.78H20.11a4.89,4.89,0,1,0,0-9.78Z" style="fill:#fff"/><path d="M21.89,14l-1.38.41a.16.16,0,0,0-.09.24l1.11,1.71a.17.17,0,0,1,0,.23l-.77.5a.17.17,0,0,1-.23,0L19.37,15.3a.16.16,0,0,0-.26,0l-.94,1.09a.17.17,0,0,1-.29-.08l-.66-5.18a.16.16,0,0,1,.25-.16l4.45,2.73A.16.16,0,0,1,21.89,14Z" style="fill:#fff"/></svg>