<svg id="Layer_1" data-name="Layer 1" xmlns="http://www.w3.org/2000/svg" viewBox="0 0 28 28"><path d="M3,16.52a.72.72,0,0,1-.6-.32L1,14a.73.73,0,0,1,0-.8l1.44-2.16a.71.71,0,0,1,1-.24.7.7,0,0,1,.24,1l0,.06L2.43,13.64,3.61,15.4a.72.72,0,0,1-.21,1,.69.69,0,0,1-.39.12Z" style="fill:#fff"/><path d="M25,10.73a.72.72,0,0,1,.6.32L27,13.21A.71.71,0,0,1,27,14l-1.44,2.16a.71.71,0,0,1-1,.27.72.72,0,0,1-.27-1l.06-.08,1.17-1.76L24.4,11.85a.72.72,0,0,1,.2-1,.78.78,0,0,1,.39-.12Z" style="fill:#fff"/><path d="M8,24.52a1.46,1.46,0,1,1,1.46-1.46A1.45,1.45,0,0,1,8,24.52Zm0-1.75a.29.29,0,0,0-.29.29c0,.32.58.32.58,0A.29.29,0,0,0,8,22.77Z" style="fill:#fff"/><path d="M13.85,24.52a1.46,1.46,0,1,1,1.46-1.46,1.46,1.46,0,0,1-1.46,1.46Zm0-1.75a.29.29,0,0,0-.29.29c0,.32.58.32.58,0A.29.29,0,0,0,13.85,22.77Z" style="fill:#fff"/><path d="M19.68,24.52a1.46,1.46,0,1,1,1.46-1.46,1.46,1.46,0,0,1-1.46,1.46Zm0-1.75a.29.29,0,0,0-.29.29c0,.32.58.32.58,0A.29.29,0,0,0,19.68,22.77Z" style="fill:#fff"/><path d="M15.82,7.44a.5.5,0,0,0-.72-.08L15,7.44l-3,3.59-1.14-1.4a.52.52,0,0,0-.73-.08l-.06.07L6.2,14.1a.52.52,0,0,0,0,.73.55.55,0,0,0,.34.13H20.94a.51.51,0,0,0,.4-.84ZM10.5,10.76l.89,1.08L9.67,13.93H7.73Zm.5,3.17,4.42-5.36,4.42,5.36Z" style="fill:#fff"/><path d="M11.55,8.28a2.4,2.4,0,1,0-2.4-2.4h0A2.39,2.39,0,0,0,11.55,8.28Zm0-3.76a1.37,1.37,0,1,1-1.36,1.37h0A1.36,1.36,0,0,1,11.55,4.52Z" style="fill:#fff"/><path d="M6.57,16.58H21.13a.48.48,0,0,1,.49.49h0a.49.49,0,0,1-.49.49H6.57a.49.49,0,0,1-.49-.49h0A.48.48,0,0,1,6.57,16.58Z" style="fill:#fff"/><path d="M6.57,18.78h6.71a.49.49,0,0,1,.49.49h0a.49.49,0,0,1-.49.49H6.57a.49.49,0,0,1-.49-.49h0A.49.49,0,0,1,6.57,18.78Z" style="fill:#fff"/></svg>