<svg id="Layer_1" data-name="Layer 1" xmlns="http://www.w3.org/2000/svg" viewBox="0 0 28 28"><title>Next Divider-01-01</title><g id="Layer_2" data-name="Layer 2"><g id="Layer_1-2" data-name="Layer 1-2"><path d="M20.4,5.16,9.58,23.9a.9.9,0,0,1-1.16.53l-.12-.06H8.18l-.35-.12a1,1,0,0,1-.37-1.36l0,0h0L18.31,4.11c.35-.58.93-.82,1.39-.47a.12.12,0,0,1,.12.12h0l.35.23C20.64,4.11,20.75,4.69,20.4,5.16Z" style="fill:#fff"/><circle cx="8.64" cy="14" r="2.33" style="fill:#fff"/><circle cx="3.17" cy="14" r="2.33" style="fill:#fff"/><circle cx="19.36" cy="14" r="2.33" style="fill:#fff"/><circle cx="24.83" cy="14" r="2.33" style="fill:#fff"/></g></g></svg>