<svg id="Layer_1" data-name="Layer 1" xmlns="http://www.w3.org/2000/svg" viewBox="0 0 28 28"><title>Review-01-01</title><g id="Layer_2" data-name="Layer 2"><g id="Layer_1-2" data-name="Layer 1-2"><g id="layer2"><path id="path820" d="M14,3.77c-.36,0-.49.37-.61.73a3.41,3.41,0,0,0-.12,1.1,2.11,2.11,0,0,1-1,1.82A2.85,2.85,0,0,0,11,8.15a1.35,1.35,0,0,0-.73-.24H8.15a1,1,0,0,0-1,1v4.51a1,1,0,0,0,1,1h2.07A.87.87,0,0,0,11,14a1.36,1.36,0,0,0,1,.36h6a1.43,1.43,0,0,0,1.34-1.09c.61-1.34,1.09-2.68,1.58-4A1.25,1.25,0,0,0,19.69,8H16.3a6.2,6.2,0,0,0,0-2.19,2.68,2.68,0,0,0-.6-1.34A2.4,2.4,0,0,0,14,3.77Zm.12.61c1,0,1.34.73,1.46,1.46a7.62,7.62,0,0,1,0,2.43.39.39,0,0,0,.37.37h3.53a.58.58,0,0,1,.61.55v.06h0c0,.49-1.1,2.68-1.46,3.77-.12.37-.37.73-.73.73H11.8a.77.77,0,0,1-.73-.61V9a.65.65,0,0,1,.37-.61,9.25,9.25,0,0,0,1-.49,3.21,3.21,0,0,0,1.31-2.3,4.75,4.75,0,0,0,.36-1.22Zm-6,4.26h2.07a.38.38,0,0,1,.36.37h0v4.5a.39.39,0,0,1-.36.36h-2a.38.38,0,0,1-.37-.36h0V8.88c0-.12.25-.36.37-.24Zm.73,3.77c-.12,0-.24.12-.24.37s.12.36.36.24H9c.12,0,.24-.12.24-.36h0c0-.13-.24-.25-.36-.25ZM14,15.94a.37.37,0,0,0-.24.12l-1.1,2.07-2.31.37c-.12,0-.24.24-.24.36s0,.13.12.25l1.7,1.58-.36,2.19c0,.12.12.37.24.37H12l2.07-1.1,2.07,1.1c.12.12.37,0,.49-.13h0v-.24l-.37-2.19L18,19.11a.38.38,0,0,0,0-.49h0a.37.37,0,0,0-.24-.12l-2.32-.37-1.09-2.07c-.12,0-.25-.12-.37-.12Zm0,1,.85,1.58c0,.12.13.12.25.12l1.82.24L15.58,20.1a.37.37,0,0,0-.12.24l.37,1.83-1.58-.85a.24.24,0,0,0-.34,0l0,0-1.58.85.36-1.83c0-.12,0-.24-.12-.24L11.2,18.88l1.8-.26a.37.37,0,0,0,.24-.12Zm-8,1.8c-.12,0-.24.12-.37.12L4.9,20.32l-1.58.25c-.12,0-.24.12-.24.36s0,.12.12.25l1.22,1.09-.25,1.58c0,.13.12.37.25.37h.24l1.46-.73,1.46.73c.12.12.37,0,.49-.12v-.25l-.25-1.58L9,21.18a.38.38,0,0,0,0-.49H9a.37.37,0,0,0-.24-.12l-1.58-.25-.73-1.46c-.25,0-.37,0-.49-.12Zm16.07,0c-.13,0-.25.12-.37.12L21,20.32l-1.58.25c-.12,0-.25.12-.25.36h0c0,.12,0,.12.13.25l1.21,1.09-.36,1.58c0,.25.12.37.24.37h.24l1.4-.73,1.46.73c.12.12.36,0,.48-.12v-.25l-.24-1.58L25,21.18a.38.38,0,0,0,0-.49.49.49,0,0,0-.25-.12l-1.58-.25-.73-1.46a.52.52,0,0,0-.36-.12ZM6,19.84l.49,1c0,.12.12.12.24.12l1.09.12L7,21.82a.37.37,0,0,0-.12.24l.24,1.09-1-.48H5.72l-1,.48L5,22c0-.12,0-.24-.12-.24L4,21.05l1.1-.12a.37.37,0,0,0,.24-.12Zm16.07,0,.48,1c0,.12.12.12.25.12l1.09.12-.73.74A.35.35,0,0,0,23,22l.12,1.09-1-.48h-.37l-1,.48.3-1.09c0-.12,0-.24-.12-.24L20.08,21l1.09-.12a.49.49,0,0,0,.25-.12Z" style="fill:#fff"/></g></g></g></svg>