<svg id="Layer_1" data-name="Layer 1" xmlns="http://www.w3.org/2000/svg" viewBox="0 0 28 28"><title>Image Reveal-01-01</title><path d="M18.42,4.36l-.23.7a.65.65,0,0,1-.58.35h-.23A.6.6,0,0,1,17,4.67l0-.08.23-.7A.6.6,0,0,1,18,3.52l.05,0a.64.64,0,0,1,.35.82Z" style="fill:#fff"/><path d="M15.05,11.34a.6.6,0,0,0-.8.31l0,0L13.77,13a.6.6,0,0,0,.29.8l.06,0h.23a.65.65,0,0,0,.58-.35l.47-1.28A.73.73,0,0,0,15.05,11.34Z" style="fill:#fff"/><path d="M12.14,20.66l-.47,1.28a.65.65,0,0,1-.58.35h-.23a.6.6,0,0,1-.37-.76.14.14,0,0,1,0-.06L11,20.19a.61.61,0,0,1,.78-.37l0,0a.53.53,0,0,1,.42.63.44.44,0,0,1-.07.19Z" style="fill:#fff"/><path d="M13.19,17.75,12.72,19a.63.63,0,1,1-1.21-.34.69.69,0,0,1,.05-.13L12,17.28a.61.61,0,0,1,.78-.37l0,0A.68.68,0,0,1,13.19,17.75Z" style="fill:#fff"/><path d="M14.35,15l-.58,1.4a.6.6,0,0,1-.76.37l-.06,0a.61.61,0,0,1-.37-.78l0,0h0l.47-1.28a.6.6,0,0,1,.76-.37l.05,0C14.23,14.42,14.47,14.77,14.35,15Z" style="fill:#fff"/><path d="M17.61,6.57l-.47,1.28a.76.76,0,0,1-.93.35.6.6,0,0,1-.37-.76s0,0,0-.05l.47-1.29a.58.58,0,0,1,.75-.36l.06,0a.66.66,0,0,1,.48.79Z" style="fill:#fff"/><path d="M16.44,9.36,16,10.65a.61.61,0,0,1-.79.35h0a.6.6,0,0,1-.37-.76s0,0,0-.05h0L15.3,8.9a.62.62,0,1,1,1.16.46Z" style="fill:#fff"/><path d="M11.09,23.45l-.23.7a1,1,0,0,1-.59.35H10a.6.6,0,0,1-.37-.76s0,0,0,0l.24-.7a.62.62,0,0,1,1.16.46Z" style="fill:#fff"/><path d="M26.92,7.85,23.31,20.43c0,.11-.11.23-.35.23H17.73a.37.37,0,0,1-.35-.35h0L18.89,7.85c0-.12.12-.23.35-.23l7.22-.12C26.81,7.39,26.92,7.5,26.92,7.85Z" style="fill:#fff"/><g style="opacity:0.30000001192092896"><path d="M10.51,7.73,9,20.19c0,.12-.11.24-.35.24l-7.21.11a.37.37,0,0,1-.35-.35v-.11L4.69,7.62c0-.12.11-.23.35-.23h5.12c.11,0,.35,0,.35.23Z" style="fill:#fff"/></g></svg>