<svg id="Layer_1" data-name="Layer 1" xmlns="http://www.w3.org/2000/svg" viewBox="0 0 28 28"><title>Multi Heading-01-01</title><path d="M23.78,4.83H4.22V4.22H23.78ZM24.39,3H3.49A.52.52,0,0,0,3,3.49v2A.52.52,0,0,0,3.49,6h20.9c.24,0,.61-.24.61-.49h0v-2c0-.25-.37-.49-.61-.49h0" style="fill:#fff"/><path d="M13.39,9.72H4.22V9.11h9.17Zm.73-1.83H3.49A.52.52,0,0,0,3,8.38v1.95a.52.52,0,0,0,.49.49H14a.54.54,0,0,0,.49-.49V8.38c.12-.25-.12-.49-.37-.49" style="fill:#fff"/><path d="M23.78,18.89H4.22v-.61H23.78Zm.61-1.83H3.49c-.25,0-.49.36-.49.61H3v1.95a.52.52,0,0,0,.49.49h20.9c.24,0,.61-.24.61-.49h0V17.67a.57.57,0,0,0-.53-.61h-.08" style="fill:#fff"/><path d="M13.39,23.78H4.22v-.61h9.17Zm.73-1.84H3.49c-.25,0-.49.37-.49.62H3v2a.52.52,0,0,0,.49.49H14c.24,0,.49-.37.49-.61h0V22.56a.46.46,0,0,0-.23-.61h-.14" style="fill:#fff"/></svg>