<svg id="Layer_1" data-name="Layer 1" xmlns="http://www.w3.org/2000/svg" viewBox="0 0 28 28"><path d="M10.46,16.12V14.93l1.22-.61a.37.37,0,0,0,0-.64l-1.22-.61V11.88A1.05,1.05,0,0,0,9.4,10.82H5.16A1.06,1.06,0,0,0,4.1,11.88v4.24a1.06,1.06,0,0,0,1.06,1.06H9.4A1.05,1.05,0,0,0,10.46,16.12Zm-5.3.35a.35.35,0,0,1-.35-.35V11.88a.35.35,0,0,1,.35-.35H9.4a.35.35,0,0,1,.36.35v1.41a.35.35,0,0,0,.19.32l.78.39-.78.39a.35.35,0,0,0-.19.32v1.41a.35.35,0,0,1-.36.35Z" style="fill:#fff"/><path d="M15.41,22.13a1.4,1.4,0,0,0-1.06-1.36V15.36a1.4,1.4,0,0,0,0-2.72V7.23a1.41,1.41,0,1,0-.7,0v5.41a1.4,1.4,0,0,0,0,2.72v5.41a1.41,1.41,0,1,0,1.76,1.36ZM13.29,5.87a.71.71,0,1,1,.71.71A.71.71,0,0,1,13.29,5.87Zm0,8.13a.71.71,0,1,1,.71.71A.71.71,0,0,1,13.29,14Zm0,8.13a.71.71,0,1,1,.71.71A.71.71,0,0,1,13.29,22.13Z" style="fill:#fff"/><path d="M23.9,24.25V20A1.07,1.07,0,0,0,22.84,19H18.6A1.06,1.06,0,0,0,17.54,20v1.2l-1.22.6a.36.36,0,0,0,0,.64l1.22.61v1.19a1.05,1.05,0,0,0,1.06,1.06h4.24A1.06,1.06,0,0,0,23.9,24.25Zm-5.3.36a.36.36,0,0,1-.36-.36V22.84a.35.35,0,0,0-.19-.32l-.78-.39.78-.39a.35.35,0,0,0,.19-.32V20a.35.35,0,0,1,.36-.35h4.24a.35.35,0,0,1,.35.35v4.24a.36.36,0,0,1-.35.36Z" style="fill:#fff"/><path d="M16.32,5.55a.36.36,0,0,0,0,.64l1.22.6V8A1.06,1.06,0,0,0,18.6,9.05h4.24A1.07,1.07,0,0,0,23.9,8V3.75a1.06,1.06,0,0,0-1.06-1.06H18.6a1.05,1.05,0,0,0-1.06,1.06V4.94ZM18.6,3.39h4.24a.36.36,0,0,1,.35.36V8a.35.35,0,0,1-.35.35H18.6A.35.35,0,0,1,18.24,8V6.58a.35.35,0,0,0-.19-.32l-.78-.39.78-.39a.35.35,0,0,0,.19-.32V3.75A.36.36,0,0,1,18.6,3.39Z" style="fill:#fff"/><path d="M22.13,5.52H19.3a.35.35,0,0,0-.35.35.35.35,0,0,0,.35.35h2.83a.35.35,0,0,0,.35-.35A.34.34,0,0,0,22.13,5.52Z" style="fill:#fff"/><path d="M19,4.81a.35.35,0,0,0,.35.35h2.83a.35.35,0,0,0,.35-.35.34.34,0,0,0-.35-.35H19.3A.35.35,0,0,0,19,4.81Z" style="fill:#fff"/><path d="M21.07,6.58H19.3a.35.35,0,0,0-.35.35.35.35,0,0,0,.35.35h1.77a.35.35,0,0,0,.35-.35A.34.34,0,0,0,21.07,6.58Z" style="fill:#fff"/><path d="M19.3,22.48h2.83a.34.34,0,0,0,.35-.35.35.35,0,0,0-.35-.35H19.3a.35.35,0,0,0-.35.35A.35.35,0,0,0,19.3,22.48Z" style="fill:#fff"/><path d="M19.3,21.42h2.83a.34.34,0,0,0,.35-.35.35.35,0,0,0-.35-.35H19.3a.35.35,0,0,0-.35.35A.35.35,0,0,0,19.3,21.42Z" style="fill:#fff"/><path d="M19.3,23.54h1.77a.34.34,0,0,0,.35-.35.35.35,0,0,0-.35-.35H19.3a.35.35,0,0,0-.35.35A.35.35,0,0,0,19.3,23.54Z" style="fill:#fff"/><path d="M5.87,14.35H8.7a.35.35,0,1,0,0-.7H5.87a.35.35,0,1,0,0,.7Z" style="fill:#fff"/><path d="M5.87,13.29H8.7a.35.35,0,0,0,.35-.35.35.35,0,0,0-.35-.35H5.87a.34.34,0,0,0-.35.35A.35.35,0,0,0,5.87,13.29Z" style="fill:#fff"/><path d="M5.87,15.41H7.64A.35.35,0,0,0,8,15.06a.35.35,0,0,0-.35-.35H5.87a.35.35,0,0,0-.35.35A.34.34,0,0,0,5.87,15.41Z" style="fill:#fff"/></svg>