<?xml version="1.0" encoding="utf-8"?>
<!-- Generator: Adobe Illustrator 21.1.0, SVG Export Plug-In . SVG Version: 6.00 Build 0)  -->
<svg version="1.1" id="Layer_1" xmlns="http://www.w3.org/2000/svg" xmlns:xlink="http://www.w3.org/1999/xlink" x="0px" y="0px"
	 viewBox="0 0 24 24" style="enable-background:new 0 0 24 24;" xml:space="preserve">
<path d="M21.654,6.566c0-0.005-0.001-0.01-0.002-0.015c-0.002-0.014-0.004-0.028-0.006-0.042c-0.001-0.004-0.001-0.009-0.002-0.013
	c-0.003-0.015-0.007-0.031-0.012-0.046c-0.002-0.007-0.004-0.014-0.007-0.02c-0.003-0.009-0.006-0.018-0.01-0.027
	c-0.003-0.007-0.006-0.015-0.009-0.022c-0.006-0.013-0.012-0.026-0.019-0.039c-0.004-0.007-0.008-0.014-0.011-0.02
	c-0.005-0.008-0.009-0.016-0.014-0.024c-0.004-0.006-0.008-0.013-0.012-0.019c-0.008-0.012-0.016-0.023-0.025-0.034
	c-0.005-0.006-0.011-0.013-0.016-0.019c-0.006-0.007-0.012-0.013-0.018-0.02c-0.006-0.006-0.012-0.012-0.018-0.018
	c-0.006-0.006-0.012-0.011-0.018-0.017c-0.013-0.011-0.026-0.022-0.04-0.033c-0.004-0.003-0.008-0.006-0.012-0.009
	c-0.009-0.007-0.019-0.013-0.029-0.019c-0.003-0.002-0.006-0.004-0.01-0.006c-0.012-0.007-0.024-0.014-0.036-0.02l-8.591-4.443
	c0,0,0,0,0,0c-0.462-0.238-1.014-0.239-1.476,0L2.672,6.085c-0.012,0.006-0.024,0.013-0.036,0.02
	c-0.003,0.002-0.007,0.004-0.01,0.006C2.616,6.117,2.607,6.123,2.598,6.13C2.594,6.133,2.59,6.136,2.586,6.138
	c-0.014,0.01-0.027,0.021-0.04,0.033C2.54,6.176,2.533,6.182,2.527,6.188C2.521,6.193,2.516,6.199,2.51,6.205
	c-0.006,0.007-0.012,0.013-0.018,0.02C2.486,6.232,2.481,6.238,2.475,6.244C2.467,6.255,2.458,6.266,2.45,6.278
	C2.446,6.284,2.442,6.291,2.438,6.297c-0.005,0.008-0.01,0.016-0.014,0.024c-0.004,0.007-0.008,0.013-0.011,0.02
	C2.405,6.354,2.399,6.367,2.393,6.38C2.39,6.388,2.387,6.395,2.384,6.402C2.381,6.411,2.377,6.42,2.374,6.43
	C2.372,6.436,2.37,6.443,2.368,6.45C2.363,6.465,2.359,6.48,2.356,6.495C2.355,6.5,2.354,6.504,2.354,6.508
	C2.351,6.522,2.349,6.537,2.347,6.551c-0.001,0.005-0.001,0.01-0.002,0.015C2.344,6.584,2.343,6.602,2.343,6.62v10.146
	c0,0.603,0.333,1.149,0.869,1.426l8.499,4.396c0.003,0.002,0.007,0.004,0.01,0.005l0.003,0.001c0.011,0.006,0.022,0.011,0.034,0.016
	c0.008,0.003,0.016,0.007,0.024,0.01c0.008,0.003,0.016,0.006,0.024,0.009c0.009,0.003,0.017,0.006,0.026,0.008
	c0.013,0.004,0.025,0.007,0.038,0.01c0.005,0.001,0.011,0.003,0.017,0.004c0.016,0.003,0.032,0.006,0.048,0.007
	c0.003,0,0.007,0.001,0.01,0.001c0.018,0.002,0.037,0.003,0.055,0.003s0.037-0.001,0.055-0.003c0.003,0,0.007-0.001,0.01-0.001
	c0.016-0.002,0.032-0.004,0.048-0.007c0.006-0.001,0.011-0.002,0.017-0.004c0.013-0.003,0.025-0.006,0.038-0.01
	c0.009-0.003,0.018-0.005,0.026-0.008c0.008-0.003,0.016-0.006,0.024-0.009c0.008-0.003,0.016-0.006,0.024-0.01
	c0.011-0.005,0.022-0.01,0.034-0.016l0.003-0.001c0.004-0.002,0.007-0.004,0.01-0.005l8.499-4.396
	c0.536-0.277,0.869-0.824,0.869-1.427V6.62C21.657,6.602,21.656,6.584,21.654,6.566z M11.4,21.077l-7.637-3.95
	c-0.136-0.07-0.22-0.208-0.22-0.36V7.606l7.857,4.063V21.077z M12,10.629L4.249,6.62l7.564-3.912c0.117-0.061,0.257-0.06,0.374,0
	l7.564,3.912L12,10.629z M20.457,16.767c0,0.152-0.084,0.291-0.22,0.361l-7.637,3.95v-9.408l7.857-4.063V16.767z"/>
</svg>
