<?xml version="1.0" encoding="iso-8859-1"?>
<!-- Generator: Adobe Illustrator 19.0.0, SVG Export Plug-In . SVG Version: 6.00 Build 0)  -->
<svg version="1.1" id="Capa_1" xmlns="http://www.w3.org/2000/svg" xmlns:xlink="http://www.w3.org/1999/xlink" x="0px" y="0px"
	 viewBox="0 0 512 512" style="enable-background:new 0 0 512 512;" xml:space="preserve">
<g>
	<g>
		<path d="M384,0H16C7.168,0,0,7.168,0,16v368c0,8.832,7.168,16,16,16h48v-32H32V32h336v32h32V16C400,7.168,392.832,0,384,0z"/>
	</g>
</g>
<g>
	<g>
		<path d="M496,96H112c-8.832,0-16,7.168-16,16v384c0,8.832,7.168,16,16,16h384c8.832,0,16-7.168,16-16V112
			C512,103.168,504.832,96,496,96z M480,480H128V128h352V480z"/>
	</g>
</g>
<g>
</g>
<g>
</g>
<g>
</g>
<g>
</g>
<g>
</g>
<g>
</g>
<g>
</g>
<g>
</g>
<g>
</g>
<g>
</g>
<g>
</g>
<g>
</g>
<g>
</g>
<g>
</g>
<g>
</g>
</svg>
