<svg id="Layer_1" data-name="Layer 1" xmlns="http://www.w3.org/2000/svg" viewBox="0 0 28 28"><title>Minimal hover-01-01</title><path d="M13.39,3h-9A1.34,1.34,0,0,0,3,4.22v9.17a1.15,1.15,0,0,0,1.08,1.22h4.3V13.39h-4V4.22h9.17v9.17H10.7v1.22h2.81a1.36,1.36,0,0,0,1.35-1.22V4.22A1.46,1.46,0,0,0,13.39,3ZM8.87,13.51v1.22h1.22V13.51Z" style="fill:#fff"/><path d="M19.26,8.87h-4v1.22h4v9.17H10.09V10.09H12.9V8.87H10.09a1.36,1.36,0,0,0-1.35,1.22v9.17a1.15,1.15,0,0,0,1.09,1.22h9.46a1.32,1.32,0,0,0,1.34-1.22V10.09a1.15,1.15,0,0,0-1.08-1.22h-.29Zm-5.75,0v1.22h1.22V8.87Z" style="fill:#fff"/><path d="M20.23,25A4.77,4.77,0,1,1,25,20.23h0A4.7,4.7,0,0,1,20.37,25Zm0-8.31a3.55,3.55,0,1,0,3.55,3.55h0A3.72,3.72,0,0,0,20.23,16.69Z" style="fill:#fff"/></svg>