<svg id="Layer_1" data-name="Layer 1" xmlns="http://www.w3.org/2000/svg" viewBox="0 0 28 28"><title>Floating</title><path d="M14,5c-.22,0-.43,0-.64,0V8.89A4.4,4.4,0,0,1,14,8.82a4.4,4.4,0,0,1,.64.06V5C14.43,5,14.22,5,14,5Z" style="fill:#fff"/><path d="M12.09,5.23a8.29,8.29,0,0,0-6.14,6.14h4a4.47,4.47,0,0,1,2.1-2.1v-4Z" style="fill:#fff"/><path d="M15.91,5.23v4a4.47,4.47,0,0,1,2.1,2.1h4A8.29,8.29,0,0,0,15.91,5.23Z" style="fill:#fff"/><path d="M22.25,12.65H18.4a4.4,4.4,0,0,1,.06.64,4.44,4.44,0,0,1-.06.64h3.85c0-.21,0-.42,0-.64S22.27,12.86,22.25,12.65Z" style="fill:#fff"/><path d="M18,15.2A4.45,4.45,0,0,1,16.43,17a5.17,5.17,0,0,1,.81.6.81.81,0,0,0,1.25,0,4.77,4.77,0,0,1,3.2-1.29h0A8.43,8.43,0,0,0,22,15.2H18Z" style="fill:#fff"/><path d="M9.6,12.65H5.75c0,.21,0,.42,0,.64s0,.43,0,.64H9.6a4.47,4.47,0,0,1-.06-.64A4.41,4.41,0,0,1,9.6,12.65Z" style="fill:#fff"/><path d="M10,15.2H6a8.42,8.42,0,0,0,.35,1.13h.09a4.77,4.77,0,0,1,3.2,1.29.81.81,0,0,0,1.25,0A5.18,5.18,0,0,1,11.6,17,4.44,4.44,0,0,1,10,15.2Z" style="fill:#fff"/><path d="M24.55,21.45a2.67,2.67,0,0,1-.49-.35,3.39,3.39,0,0,0-4.73,0,2.07,2.07,0,0,1-3,0,3.34,3.34,0,0,0-4.68,0,2.07,2.07,0,0,1-3,0A3.39,3.39,0,0,0,4,21.1a2.64,2.64,0,0,1-.54.38.64.64,0,1,0,.59,1.13A4.11,4.11,0,0,0,4.9,22a2.07,2.07,0,0,1,3,0,3.34,3.34,0,0,0,4.68,0,2.07,2.07,0,0,1,3,0,3.34,3.34,0,0,0,4.68,0,2.07,2.07,0,0,1,3,0,4.19,4.19,0,0,0,.77.53.64.64,0,1,0,.62-1.11Z" style="fill:#fff"/><path d="M24.55,18.91a2.67,2.67,0,0,1-.49-.35,3.39,3.39,0,0,0-4.73,0,2.07,2.07,0,0,1-3,0,3.34,3.34,0,0,0-4.68,0,2.07,2.07,0,0,1-3,0,3.39,3.39,0,0,0-4.73,0,2.64,2.64,0,0,1-.54.38.64.64,0,1,0,.59,1.13,4.11,4.11,0,0,0,.84-.57,2.07,2.07,0,0,1,3,0,3.34,3.34,0,0,0,4.68,0,2.07,2.07,0,0,1,3,0,3.34,3.34,0,0,0,4.68,0,2.07,2.07,0,0,1,3,0,4.19,4.19,0,0,0,.77.53.64.64,0,1,0,.62-1.11Z" style="fill:#fff"/></svg>