<svg id="Layer_1" data-name="Layer 1" xmlns="http://www.w3.org/2000/svg" viewBox="0 0 28 28"><title>Highlight-01-01</title><path d="M21,4.67,20.53,6H15.75a1.57,1.57,0,0,0-1.63,1.51h0v.11h0V19.25H12.83V7.7a1.57,1.57,0,0,0-1.51-1.63H11.2L6.77,6V4.67H21m.93-1.17H6.07c-.24,0-.47.12-.47.35v2.8a.51.51,0,0,0,.47.47l5.13.11a.51.51,0,0,1,.47.47V19.83a.5.5,0,0,0,.46.47h2.69a.5.5,0,0,0,.46-.47h0V7.58a.5.5,0,0,1,.47-.46H21c.23,0,.35-.12.47-.35l.93-2.69a.42.42,0,0,0-.19-.56l0,0h-.24" style="fill:#fff"/><path d="M23.33,23.33H4.67v-.58H23.33Zm.94-1.75H3.73a.27.27,0,0,0-.23.24h0v2.45a.26.26,0,0,0,.23.23H24.27a.26.26,0,0,0,.23-.23h0V21.82a.27.27,0,0,0-.23-.24h0" style="fill:#fff"/></svg>