<svg id="Layer_1" data-name="Layer 1" xmlns="http://www.w3.org/2000/svg" viewBox="0 0 28 28"><title>Glitch-01-01</title><path d="M9.84,4.34,5,9h7v3.54l4.16-1.22V9h2L23,4.34ZM12,13.27v2l4.2,3.13V12.17ZM12,25h4.2V21.82l-4.2.61Zm0-8.8v5.38L16.2,21V19.38ZM24.27,4.34,19.38,9h3.54L25,4.34Zm-20,0V8.5l4.4-4.16Z" style="fill:#fff"/><polygon points="25 3.61 20.23 8.13 19.74 7.4 24.51 3 25 3.61" style="fill:#fff"/><polygon points="8.26 5.81 3.49 10.33 3 9.72 7.77 5.2 8.26 5.81" style="fill:#fff"/><polygon points="17.79 11.68 13.39 12.9 13.14 12.04 17.67 10.82 17.79 11.68" style="fill:#fff"/><polygon points="14.98 18.52 10.7 15.22 11.07 14.49 15.47 17.79 14.98 18.52" style="fill:#fff"/><polygon points="17.42 21.7 13.76 22.19 13.63 21.33 17.3 20.84 17.42 21.7" style="fill:#fff"/></svg>