<svg id="Layer_1" data-name="Layer 1" xmlns="http://www.w3.org/2000/svg" viewBox="0 0 28 28"><title>Stroke-01-01-01</title><path d="M23.54,4.22,22.8,6.55H16.33A1.87,1.87,0,0,0,14.5,8.38h0v15.4H12.17V8.5a1.87,1.87,0,0,0-1.83-1.83L4.23,6.55V4.22H23.54M24.39,3H3.62A.55.55,0,0,0,3,3.49v.12H3V7a.57.57,0,0,0,.49.62h.12l6.72.24a.56.56,0,0,1,.61.49v16c0,.36.25.49.61.61H15a.56.56,0,0,0,.61-.48h0v-.12h0v-16a.57.57,0,0,1,.49-.61h7a.82.82,0,0,0,.61-.49l1.22-3.42A.64.64,0,0,0,24.56,3h-.13" style="fill:#fff"/></svg>