<svg id="Layer_1" data-name="Layer 1" xmlns="http://www.w3.org/2000/svg" viewBox="0 0 28 28"><title>Stroke Motion-01-01-01</title><path d="M4,3.05h.48a.79.79,0,0,1,.73.73V24.32a.79.79,0,0,1-.73.73H4a.79.79,0,0,1-.73-.73V3.78a.7.7,0,0,1,.67-.73Z" style="fill:#fff"/><path d="M23.59,7.06H7.67a1.21,1.21,0,0,0-1.2,1.22v2.79a1.22,1.22,0,0,0,1.21,1.22H23.6a1.22,1.22,0,0,0,1.21-1.22h0V8.28A1.4,1.4,0,0,0,23.59,7.06Zm-.25,3.78H7.91V8.52H23.34Z" style="fill:#fff"/><path d="M16.42,16.15H8a1.22,1.22,0,0,0-1.22,1.21v2.8A1.22,1.22,0,0,0,8,21.37h8.38a1.21,1.21,0,0,0,1.21-1.21v-2.8A1.21,1.21,0,0,0,16.42,16.15Zm0,3.76H8V17.63h8.38Z" style="fill:#fff"/></svg>