<svg id="Layer_1" data-name="Layer 1" xmlns="http://www.w3.org/2000/svg" viewBox="0 0 28 28"><title>Image Maginifier</title><g id="Layer_2" data-name="Layer 2"><g id="Layer_1-2" data-name="Layer 1-2"><path d="M23.89,21.63l-2.5-2.5a4.22,4.22,0,1,0-.59.59l2.5,2.5a.42.42,0,0,0,.59-.59Zm-9-5.12a3.33,3.33,0,1,1,3.33,3.33,3.33,3.33,0,0,1-3.33-3.33h0Z" style="fill:#fff"/><path d="M7.33,9A1.67,1.67,0,1,0,9,7.33H9A1.67,1.67,0,0,0,7.33,9Zm2.5,0A.83.83,0,1,1,9,8.17.83.83,0,0,1,9.84,9h0Z" style="fill:#fff"/><path d="M12.75,17.34H5.67a.82.82,0,0,1-.8-.69l2.89-2.89,2.62,2.62a.42.42,0,0,0,.59-.59L10.22,15l4.2-4.2,1,1a.42.42,0,0,0,.59-.59L14.72,10a.42.42,0,0,0-.59,0h0l-4.5,4.5L8,12.88a.42.42,0,0,0-.59,0h0L4.83,15.5V7.33a.84.84,0,0,1,.83-.83H19.84a.83.83,0,0,1,.83.83v4.59a.42.42,0,0,0,.83,0V7.33a1.67,1.67,0,0,0-1.67-1.67H5.67A1.67,1.67,0,0,0,4,7.33V16.5a1.67,1.67,0,0,0,1.67,1.67h7.09a.42.42,0,0,0,0-.83Z" style="fill:#fff"/></g></g></svg>