<svg id="Layer_1" data-name="Layer 1" xmlns="http://www.w3.org/2000/svg" viewBox="0 0 28 28"><title>Hover-01-01</title><path d="M6.3,11.2c-.12,0-.24,0-.24.12L3.61,13.88a.57.57,0,0,0,0,.59.57.57,0,0,0,.59,0h0L6,12.6v7.47a.48.48,0,0,0,.53.4.47.47,0,0,0,.4-.4V12.6l1.75,1.87a.55.55,0,0,0,.58,0h0a.53.53,0,0,0,0-.59l-2.5-2.56c-.23,0-.35-.12-.46-.12" style="fill:#fff"/><path d="M10.85,5.6l11,7.35-4.55.93a1.72,1.72,0,0,0-1.05.7,1.25,1.25,0,0,0-1.05.59l-2.33,3.38-2-12.95M9.68,3.5c-.12,0-.23.12-.23.35h0l2.8,17.27a.26.26,0,0,0,.23.23c.12,0,.23,0,.23-.12L16.21,16c0-.11.12-.11.24-.11s.23,0,.23.11l5.48,8.4c0,.12.12.12.24.12h.23a.71.71,0,0,0,.12-.47l-5.37-8.51a.21.21,0,0,1,0-.31s0,0,0,0h.23l6.65-1.4c.12,0,.24-.24.24-.35s0-.12-.12-.24L9.8,3.5H9.68" style="fill:#fff"/></svg>